<?xml version="1.0" encoding="utf-8"?>
<!-- Svg Vector Icons : http://www.onlinewebfonts.com/icon -->
<!DOCTYPE svg PUBLIC "-//W3C//DTD SVG 1.1//EN" "http://www.w3.org/Graphics/SVG/1.1/DTD/svg11.dtd">
<svg version="1.1" xmlns="http://www.w3.org/2000/svg" xmlns:xlink="http://www.w3.org/1999/xlink" x="0px" y="0px" viewBox="0 0 1000 1000" enable-background="new 0 0 1000 1000" xml:space="preserve">
<metadata> Svg Vector Icons : http://www.onlinewebfonts.com/icon </metadata>
<g><g><g><path fill="#EB4F38" d="M365.8,367.1c72.6,0,131.4,83.1,131.4,185.7c0,102.5-58.8,185.7-131.4,185.7c-72.6,0-131.4-83.1-131.4-185.7C234.5,450.3,293.3,367.1,365.8,367.1z"/><polygon fill="#EB4F38" points="619,975 646.3,975 700.4,175 660.1,170.3 "/><polygon fill="#EB4F38" points="857.8,193.5 824.8,189.6 733.2,975 777,975 "/><polygon fill="#EB4F38" points="776.3,183.9 753.5,181.3 675.9,975 703.4,975 "/><path fill="#EB4F38" d="M802.2,114.4c-1.1,0-2.1,0.2-3.1,0.3c-5.3-4-11.9-6.5-19-6.5c-9.8,0-18.4,4.5-24.2,11.5c-3.1-21.4-21.3-37.8-43.7-37.8c-12.6,0-23.8,5.2-31.9,13.6c-1.6-15.9-14.9-28.4-31.3-28.4c-9.5,0-18,4.3-23.8,11c-7-7-16.7-11.5-27.4-11.5c-3.3,0-6.5,0.6-9.6,1.4c0.4-1.8,0.6-3.6,0.6-5.6c0-17.4-14.2-31.6-31.6-31.6c-10.4,0-19.6,5.1-25.3,12.9C524.4,24,505.5,10,483.1,10c-21.3,0-39.6,12.8-47.8,31c-0.7,0-1.4-0.2-2-0.2c-13.3,0-24.8,6.8-31.6,17.1c-0.4,0-0.8-0.1-1.2-0.1c-18,0-32.7,13.1-35.6,30.3c-6.5-13.9-20.5-23.6-36.9-23.6c-13.1,0-24.6,6.3-32.1,15.9c-4.4-2.3-9.2-3.7-14.6-3.7c-14,0-25.8,9.2-29.9,21.9c-6.8-3.3-14.4-5.3-22.5-5.3c-28.9,0-52.4,23.5-52.4,52.4c0,14.3,5.5,30.7,14.8,40.1L558,147.3l275.5,31.5v-37.5h-0.3C830.9,126.1,818,114.4,802.2,114.4z"/><path fill="#EB4F38" d="M205.4,198.9l-63.2,6.5L217,990l54.9-2.5l-25.5-302.3c-21.9-36.1-35-82.2-35-132.4c0-33.2,5.9-64.4,16.1-92.3L205.4,198.9z"/><path fill="#EB4F38" d="M507.7,976.6l35.7-1.6h36.5l30-810.6l-33.5-3.9l-54.4,5.6l-6.2,354.5c1.2,10.5,2,21.2,2,32.1c0,14.8-1.2,29.2-3.3,43.2L507.7,976.6z"/><path fill="#EB4F38" d="M452.5,173.3l-62.5,6.5l4.4,167.1c22.2,5.6,42.8,17.6,60.6,34.6L452.5,173.3z"/><path fill="#EB4F38" d="M411,981.1l51.2-2.4L459.1,720c-15.9,16.2-34.2,28.3-54,35.4L411,981.1z"/><path fill="#EB4F38" d="M333.3,185.6l-53.1,5.5l8.2,180.1c15.6-12.2,32.9-20.7,51.4-24.9L333.3,185.6z"/><path fill="#EB4F38" d="M316.6,985.4l49.3-2.3l-9-221.4c-18.1-1.4-35.3-6.7-51.2-15.8L316.6,985.4z"/></g></g><g></g><g></g><g></g><g></g><g></g><g></g><g></g><g></g><g></g><g></g><g></g><g></g><g></g><g></g><g></g></g>
</svg>