<?xml version="1.0" encoding="utf-8"?><svg xml:space="preserve" viewBox="0 0 100 100" y="0" x="0" xmlns="http://www.w3.org/2000/svg" id="Layer_1" version="1.1" width="300px" height="300px" xmlns:xlink="http://www.w3.org/1999/xlink" style="width:100%;height:100%;background-size:initial;background-repeat-y:initial;background-repeat-x:initial;background-position-y:initial;background-position-x:initial;background-origin:initial;background-color:initial;background-clip:initial;background-attachment:initial;animation-play-state:paused" ><g class="ldl-scale" style="transform-origin:50% 50%;transform:rotate(0deg) scale(0.8, 0.8);animation-play-state:paused" ><g style="animation-play-state:paused" ><path stroke-miterlimit="10" stroke-width="3.5" stroke="#333" fill="#f4e6c8" d="M83.9 26.8c0-2-1.3-3.7-3-4.4-.7-2.2-2.5-4-4.8-4.5-.5-3.1-3.2-5.4-6.4-5.4-2.9 0-5.4 1.9-6.3 4.6-.8-.3-1.6-.5-2.5-.5-.6 0-1.2.1-1.8.3-1.1-2-3.3-3.4-5.8-3.4-.8 0-1.5.1-2.2.4-1-2.2-3.3-3.8-5.9-3.8-3.5 0-6.3 2.7-6.5 6.1-.9-.4-1.9-.7-2.9-.7-.6 0-1.1.1-1.6.2-1.2-1.4-3-2.3-4.9-2.3-3.6 0-6.6 2.9-6.6 6.6 0 .3 0 .7.1 1-1.4 0-2.7.5-3.8 1.3-1.6 1.2-2.7 3.1-2.7 5.3 0 2.2 1 4.1 2.7 5.3.7.5 1.6.9 2.5 1.1h59.1c.4-.8.7-1.8.8-2.8 1.3-.8 2.5-2.5 2.5-4.4z" style="stroke:rgb(51, 51, 51);fill:rgb(244, 230, 200);animation-play-state:paused" ></path>
<path stroke-miterlimit="10" stroke-width="3.5" stroke="#333" fill="none" d="M42.6 29.4c-1.9-1.9-1.8-5.5.2-7.3s5.6-1.5 7.3.6c1.2 1.5 1.1 4.1-.3 5.5" style="stroke:rgb(51, 51, 51);animation-play-state:paused" ></path>
<path stroke-miterlimit="10" stroke-width="3.5" stroke="#333" fill="none" d="M51 25c.9-1.5 2.8-2.2 4.5-1.7 1.6.5 2.9 2.2 2.8 3.9" style="stroke:rgb(51, 51, 51);animation-play-state:paused" ></path>
<path stroke-miterlimit="10" stroke-width="3.5" stroke="#333" fill="#f4e6c8" d="M76 17.9c-.9 0-7.3-.5-7.2 6" style="stroke:rgb(51, 51, 51);fill:rgb(244, 230, 200);animation-play-state:paused" ></path></g>
<g style="animation-play-state:paused" ><path stroke-miterlimit="10" stroke-width="3.5" stroke="#333" fill="#e15c64" d="M36.6 90h-7c-1.5 0-2.7-1.1-2.9-2.6l-5.5-53.6h11.9L36.6 90z" style="stroke:rgb(51, 51, 51);fill:rgb(225, 92, 100);animation-play-state:paused" ></path>
<path d="M46.2 90h-9.6l-3.4-56.2H45z" stroke-miterlimit="10" stroke-width="3.5" stroke="#333" fill="#fff" style="stroke:rgb(51, 51, 51);fill:rgb(255, 255, 255);animation-play-state:paused" ></path>
<path d="M55.8 90h-9.6L45 33.8h11.9z" stroke-miterlimit="10" stroke-width="3.5" stroke="#333" fill="#e15c64" style="stroke:rgb(51, 51, 51);fill:rgb(225, 92, 100);animation-play-state:paused" ></path>
<path d="M65.3 90h-9.5l1.1-56.2h11.9z" stroke-miterlimit="10" stroke-width="3.5" stroke="#333" fill="#fff" style="stroke:rgb(51, 51, 51);fill:rgb(255, 255, 255);animation-play-state:paused" ></path>
<path stroke-miterlimit="10" stroke-width="3.5" stroke="#333" fill="#e15c64" d="M72.3 90h-7l3.4-56.2h11.9l-5.5 53.6c-.1 1.5-1.3 2.6-2.8 2.6z" style="stroke:rgb(51, 51, 51);fill:rgb(225, 92, 100);animation-play-state:paused" ></path>
<path stroke-miterlimit="10" stroke-width="3.5" stroke="#333" fill="#f7b26a" d="M56.9 66.7h-12c-2.8 0-5-2.2-5-5v-4.5c0-2.8 2.2-5 5-5h12c2.8 0 5 2.2 5 5v4.5c0 2.8-2.2 5-5 5z" style="stroke:rgb(51, 51, 51);fill:rgb(247, 178, 106);animation-play-state:paused" ></path></g>
<metadata xmlns:d="https://loading.io/stock/" style="animation-play-state:paused" ><d:name style="animation-play-state:paused" >popcorn</d:name>
<d:tags style="animation-play-state:paused" >popcorn,movie,theatre</d:tags>
<d:license style="animation-play-state:paused" >by</d:license>
<d:slug style="animation-play-state:paused" >u998bl</d:slug></metadata></g><!-- generated by https://loading.io/ --></svg>