<?xml version="1.0" standalone="no"?>
<!DOCTYPE svg PUBLIC "-//W3C//DTD SVG 1.1//EN" "http://www.w3.org/Graphics/SVG/1.1/DTD/svg11.dtd" >
<svg xmlns="http://www.w3.org/2000/svg" xmlns:xlink="http://www.w3.org/1999/xlink" version="1.1">
<metadata>
Created by FontForge 20190801 at Tue Nov 17 22:47:37 1992
 By Jimmy Wärting
Copyright 1990-1993 Bitstream Inc.  All rights reserved.
</metadata>
<defs>
<font id="BenguiatITCbyBT-Book" horiz-adv-x="1233" >
  <font-face 
    font-family="Benguiat Bk BT"
    font-weight="400"
    font-stretch="normal"
    units-per-em="2048"
    panose-1="2 3 6 4 5 3 6 2 7 4"
    ascent="1638"
    descent="-410"
    x-height="1024"
    cap-height="1366"
    bbox="-334 -500 2632 1925"
    underline-thickness="133"
    underline-position="-277"
    unicode-range="U+0020-F002"
  />
<missing-glyph horiz-adv-x="1229" 
d="M102 -362v1806h1024v-1806h-1024zM217 -248h795v1577h-795v-1577z" />
    <glyph glyph-name=".notdef" horiz-adv-x="1229" 
d="M102 -362v1806h1024v-1806h-1024zM217 -248h795v1577h-795v-1577z" />
    <glyph glyph-name=".null" horiz-adv-x="0" 
 />
    <glyph glyph-name="nonmarkingreturn" horiz-adv-x="616" 
 />
    <glyph glyph-name="space" unicode=" " horiz-adv-x="616" 
 />
    <glyph glyph-name="exclam" unicode="!" horiz-adv-x="631" 
d="M168 338q25 95 37 193.5t12 203.5q0 231 -20.5 375.5t-65.5 255.5h367q-61 -134 -92 -298t-31 -349q0 -91 6 -169.5t18 -151.5q-23 5 -41 7.5t-32 2.5q-43 0 -81 -17t-77 -53zM309 276q52 0 90.5 -44t38.5 -105q0 -62 -37.5 -104.5t-91.5 -42.5q-52 0 -89.5 42.5
t-37.5 104.5t38 105.5t89 43.5z" />
    <glyph glyph-name="quotedbl" unicode="&#x22;" horiz-adv-x="686" 
d="M526 860h-34l-70 459q-1 7 -1.5 14.5t-0.5 22.5q0 51 22.5 78.5t65.5 27.5q42 0 66 -27t24 -75q0 -16 -0.5 -24.5t-1.5 -16.5zM195 860h-35l-70 459q-2 17 -3 26t-1 15q0 48 24 75t66 27q44 0 67 -27.5t23 -78.5q0 -16 -0.5 -23.5t-1.5 -14.5z" />
    <glyph glyph-name="numbersign" unicode="#" horiz-adv-x="1575" 
d="M702 864l-98 -276h283l96 276h-281zM760 1458h155l-161 -454h276l162 454h156l-162 -454h301l-49 -140h-301l-97 -276h320l-49 -139h-320l-162 -453h-155l162 453h-279l-162 -453h-153l159 453h-313l51 139h312l98 276h-336l51 140h334z" />
    <glyph glyph-name="dollar" unicode="$" 
d="M670 213q114 18 181 82t67 156q0 89 -56.5 135t-191.5 65v-438zM475 -147v20q31 19 42 38t11 54v133q-49 2 -121.5 14.5t-99.5 12.5q-18 0 -38 -9.5t-42 -27.5l-112 487h20q91 -176 181 -256.5t212 -99.5v459q-170 26 -259 106.5t-89 208.5q0 132 94 213.5t254 87.5v105
q0 35 -11 55.5t-42 38.5v18h248v-18q-30 -16 -41.5 -37t-11.5 -57v-111q107 -20 145.5 -25.5t58.5 -5.5q24 0 46 3.5t45 10.5l45 -370h-17q-70 147 -169 216t-238 69q-95 0 -152 -41.5t-57 -108.5q0 -103 280 -165l66 -15q223 -51 301 -128t78 -226q0 -173 -117.5 -283.5
t-314.5 -120.5v-133q0 -36 11.5 -55.5t41.5 -36.5v-20h-248z" />
    <glyph glyph-name="percent" unicode="%" horiz-adv-x="1802" 
d="M1161 375q0 -133 62.5 -221t152.5 -88q85 0 141 72.5t56 183.5q0 134 -61 221.5t-152 87.5q-86 0 -142.5 -73.5t-56.5 -182.5zM987 348q0 161 110.5 269t272.5 108q163 0 272 -107.5t109 -269.5q0 -161 -109 -269t-272 -108q-162 0 -272.5 108.5t-110.5 268.5zM492 0v18
q34 14 58 37t38 58l491 1155q5 11 8 21t3 16q0 9 -6 18t-21 23v20h242v-20q-35 -14 -59 -37t-38 -58l-491 -1155q-4 -9 -6 -18t-2 -17q0 -10 5 -19.5t21 -23.5v-18h-243zM223 1044q0 -132 62.5 -220.5t152.5 -88.5q86 0 142.5 72.5t56.5 181.5q0 135 -61.5 223t-151.5 88
q-86 0 -143.5 -73t-57.5 -183zM51 1018q0 161 110 269t271 108q163 0 272 -108t109 -269t-109.5 -270t-271.5 -109q-161 0 -271 109t-110 270z" />
    <glyph glyph-name="ampersand" unicode="&#x26;" horiz-adv-x="1677" 
d="M623 932q77 30 116 79t39 115q0 78 -49.5 124t-130.5 46q-66 0 -110 -39.5t-44 -99.5q0 -55 43 -109t136 -116zM695 880q87 -53 180 -125.5t224 -190.5q2 12 2.5 25.5t0.5 41.5q0 126 -45 219t-139 162q-44 -61 -96.5 -91.5t-126.5 -40.5zM1028 342q-100 99 -227.5 202
t-333.5 249q-107 -56 -158 -135.5t-51 -190.5q0 -164 104 -268.5t263 -104.5q133 0 232 61t171 187zM1208 465q128 -118 236.5 -277t150.5 -159h7v-29h-488v28q50 12 68 30t18 55q0 42 -20 79.5t-60 67.5q-74 -140 -213 -214.5t-327 -74.5q-240 0 -387.5 128t-147.5 333
q0 161 90 275t244 149q-75 47 -112.5 108.5t-37.5 137.5q0 133 97.5 213t261.5 80q160 0 254 -73.5t94 -197.5q0 -16 -3 -40t-9 -50q132 -74 214.5 -101.5t159.5 -27.5q78 0 128.5 36.5t50.5 90.5q0 31 -20.5 47.5t-57.5 16.5q-31 0 -59 -11t-56 -34v28q39 57 93 88t114 31
q75 0 120.5 -52.5t45.5 -139.5q0 -127 -81 -200t-220 -73q-48 0 -90 11.5t-86 35.5q20 -47 29.5 -96.5t9.5 -108.5q0 -20 -2.5 -45t-8.5 -65z" />
    <glyph glyph-name="quotesingle" unicode="'" horiz-adv-x="352" 
d="M195 860h-35l-70 459q0 2 -1 8q-3 20 -3 29q0 50 23.5 78t66.5 28q42 0 66 -27t24 -75q0 -7 -0.5 -15t-3.5 -27z" />
    <glyph glyph-name="parenleft" unicode="(" horiz-adv-x="664" 
d="M516 1395l53 -66q-123 -102 -190.5 -313.5t-67.5 -497.5q0 -287 67.5 -499t190.5 -314l-53 -65q-194 208 -284.5 419t-90.5 457t90.5 458.5t284.5 420.5z" />
    <glyph glyph-name="parenright" unicode=")" horiz-adv-x="664" 
d="M147 1395q194 -208 284.5 -420.5t90.5 -458.5t-90 -457t-285 -419l-53 65q123 102 190.5 314t67.5 499q0 286 -67.5 497.5t-190.5 313.5z" />
    <glyph glyph-name="asterisk" unicode="*" horiz-adv-x="1024" 
d="M526 950v-22q0 -72 38 -158.5t38 -114.5q0 -41 -24.5 -66.5t-65.5 -25.5q-43 0 -67.5 24t-24.5 64q0 31 39 116t39 159q0 4 -1 13.5t-1 14.5q-73 -40 -145.5 -134.5t-125.5 -94.5q-36 0 -62 26t-26 64q0 48 37.5 73.5t111.5 28.5q62 4 111 19.5t82 42.5q-73 51 -208 62
q-14 1 -21 1q-52 5 -82.5 32.5t-30.5 70.5q0 36 25 63t61 27q54 0 125.5 -95t149.5 -134v10q0 77 -39 169t-39 122q0 38 25.5 63t66.5 25q44 0 67 -23t23 -65q0 -31 -37 -118.5t-37 -162.5v-25q74 42 146 137t129 95q33 0 58.5 -28.5t25.5 -63.5q0 -38 -30.5 -65.5
t-72.5 -31.5q-5 0 -16 -1q-160 -14 -223 -66q78 -50 202 -59q19 -2 28 -3q51 -5 81.5 -33t30.5 -71q0 -34 -28.5 -62t-61.5 -28q-50 0 -122.5 96.5t-148.5 132.5z" />
    <glyph glyph-name="plus" unicode="+" horiz-adv-x="1706" 
d="M782 1221h142v-541h528v-139h-528v-541h-142v541h-528v139h528v541z" />
    <glyph glyph-name="comma" unicode="," horiz-adv-x="616" 
d="M287 -203h-181l37 58q16 25 36 67t44 101q34 81 46 115.5t12 45.5v2l-2 50h221z" />
    <glyph glyph-name="hyphen" unicode="-" horiz-adv-x="797" 
d="M152 614h14l12 -22h383q40 0 80.5 8.5t85.5 26.5l-80 -217h-14l-12 22h-385q-40 0 -80.5 -8.5t-85.5 -26.5z" />
    <glyph glyph-name="period" unicode="." horiz-adv-x="616" 
d="M303 276q52 0 89.5 -43.5t37.5 -105.5t-37 -104.5t-90 -42.5t-90 42.5t-37 104.5t38 105.5t89 43.5z" />
    <glyph glyph-name="slash" unicode="/" horiz-adv-x="569" 
d="M72 -190h-127l553 1585h127z" />
    <glyph glyph-name="zero" unicode="0" 
d="M616 1395q246 0 400.5 -197.5t154.5 -515.5t-154 -514.5t-401 -196.5q-246 0 -401.5 197t-155.5 514t156 515t401 198zM616 1284q-160 0 -239.5 -150t-79.5 -454q0 -306 79 -455t240 -149t240.5 150t79.5 454t-79.5 454t-240.5 150z" />
    <glyph glyph-name="one" unicode="1" 
d="M1094 29v-29h-889v29l176 14q98 8 133 46t35 163v850q0 58 -32.5 87.5t-98.5 29.5q-42 0 -94.5 -6t-145.5 -21v33q174 34 321 76t277 96v-1188q0 -92 24 -120.5t103 -37.5z" />
    <glyph glyph-name="two" unicode="2" 
d="M51 0q453 435 597.5 639t144.5 365q0 122 -71 195t-190 73q-151 0 -248.5 -88.5t-97.5 -229.5v-26h-18q-13 89 -38 210t-30 150q101 54 204 80.5t216 26.5q225 0 368.5 -104.5t143.5 -262.5q0 -150 -124 -323.5t-486 -499.5h352q158 0 234 41t112 141h17l-125 -407
q-18 10 -39 15t-53 5h-19h-850z" />
    <glyph glyph-name="three" unicode="3" 
d="M-10 135l215 326l18 -19q-11 -32 -15.5 -56.5t-4.5 -45.5q0 -105 90.5 -173.5t232.5 -68.5q165 0 279.5 112.5t114.5 272.5t-119.5 254t-321.5 94q-38 0 -121 -6q-33 -3 -48 -3l446 358h-377q-71 0 -121 -31.5t-98 -106.5l-19 7l99 344q11 -15 23 -21t32 -6h29h694
l33 -78l-375 -297q211 -12 339 -140.5t128 -326.5q0 -235 -181 -393t-454 -158q-127 0 -254.5 40t-263.5 122z" />
    <glyph glyph-name="four" unicode="4" 
d="M539 0v29q72 11 99.5 43t27.5 110v195h-545q-33 0 -59 -6.5t-50 -20.5q0 4 -1 12.5t-1 12.5q0 87 123 241q65 81 98 132q88 132 137.5 251.5t49.5 196.5q0 34 -12 50.5t-43 29.5l292 211q7 -35 11 -63t4 -42q0 -108 -57.5 -233t-231.5 -367q-20 -28 -58 -79
q-93 -126 -124 -189h467v555q85 35 143 98t78 144l22 6q-14 -81 -21 -171.5t-7 -187.5v-444h118q58 0 93.5 20.5t68.5 71.5h19l-68 -280q-16 29 -35.5 40t-62.5 11h-133v-195q0 -78 27.5 -110t101.5 -43v-29h-471z" />
    <glyph glyph-name="five" unicode="5" 
d="M25 117l188 329l14 -6q-11 -30 -16.5 -54.5t-5.5 -47.5q0 -104 84 -175t211 -71q182 0 302 106t120 263q0 144 -126 232.5t-335 88.5q-83 0 -167.5 -18t-174.5 -55q58 198 76 294.5t18 178.5q0 38 -4 84t-14 125q25 -12 43.5 -18.5t27.5 -6.5h592q17 0 42 3.5t54 10.5
l-73 -280l-11 6q-4 40 -23 57t-63 17h-471q-6 -72 -13 -126t-17 -103q63 8 114 13t86 5q310 0 485 -126.5t175 -346.5q0 -222 -188 -373.5t-472 -151.5q-113 0 -226 36t-232 110z" />
    <glyph glyph-name="six" unicode="6" 
d="M289 762q84 78 179.5 117t203.5 39q222 0 369 -131t147 -326q0 -208 -156.5 -349t-394.5 -141q-261 0 -421.5 191t-160.5 500q0 327 188.5 529t493.5 202q78 0 163 -16.5t181 -49.5l-114 -317h-17v16q0 119 -62.5 183.5t-178.5 64.5q-185 0 -302.5 -140.5t-117.5 -365.5
v-6zM307 449q0 -157 95 -263t237 -106q143 0 235.5 100t92.5 254q0 163 -94 267t-238 104q-141 0 -234.5 -101.5t-93.5 -254.5z" />
    <glyph glyph-name="seven" unicode="7" 
d="M373 0q7 168 73.5 328t206.5 344q47 61 137 167q192 226 216 341h-627q-97 0 -154 -36t-102 -122l-25 4l115 352q16 -6 33.5 -9t48.5 -3h745q25 0 51.5 8.5t57.5 25.5l3 -40.5t1 -24.5q0 -172 -186 -478q-19 -32 -29 -48l-17 -28q-262 -437 -272 -781h-276z" />
    <glyph glyph-name="eight" unicode="8" 
d="M606 817q127 0 199 63.5t72 176.5q0 112 -72 175.5t-199 63.5t-198.5 -63.5t-71.5 -175.5q0 -113 71.5 -176.5t198.5 -63.5zM606 80q150 0 235 82.5t85 228.5q0 147 -85 230.5t-235 83.5q-149 0 -233 -83t-84 -231q0 -147 84 -229t233 -82zM362 762q-118 40 -175.5 109
t-57.5 171q0 161 128 257t349 96t349 -96t128 -257q0 -102 -57 -171t-176 -109q149 -44 227 -137t78 -226q0 -191 -150 -310.5t-399 -119.5q-248 0 -398.5 119.5t-150.5 310.5q0 133 78.5 226t226.5 137z" />
    <glyph glyph-name="nine" unicode="9" 
d="M938 604q-84 -78 -179.5 -116.5t-203.5 -38.5q-222 0 -369 130.5t-147 325.5q0 208 155.5 349t393.5 141q261 0 421 -190.5t160 -499.5q0 -329 -187.5 -531.5t-492.5 -202.5q-75 0 -159 16.5t-185 51.5l115 315h16v-16q0 -119 63 -183.5t179 -64.5q95 0 177 42t141 120
q51 68 76.5 155.5t25.5 196.5zM918 918q0 156 -94.5 261t-235.5 105q-143 0 -235.5 -99.5t-92.5 -252.5q0 -163 94 -267t238 -104q141 0 233.5 101.5t92.5 255.5z" />
    <glyph glyph-name="colon" unicode=":" horiz-adv-x="631" 
d="M313 1053q52 0 90.5 -44t38.5 -106t-37.5 -104.5t-91.5 -42.5q-52 0 -89.5 42.5t-37.5 104.5t38 106t89 44zM313 276q52 0 90.5 -44t38.5 -105q0 -62 -37.5 -104.5t-91.5 -42.5q-52 0 -89.5 42.5t-37.5 104.5t38 105.5t89 43.5z" />
    <glyph glyph-name="semicolon" unicode=";" horiz-adv-x="631" 
d="M293 -203h-180l39 58q13 22 31 60.5t46 106.5l9 22q51 123 51 140v2l-4 50h221zM389 1053q52 0 90.5 -44t38.5 -106t-38 -104.5t-91 -42.5q-52 0 -89.5 42.5t-37.5 104.5t38 106t89 44z" />
    <glyph glyph-name="less" unicode="&#x3c;" horiz-adv-x="1706" 
d="M1442 1159v-153l-969 -396l969 -393v-154l-1178 484v129z" />
    <glyph glyph-name="equal" unicode="=" horiz-adv-x="1706" 
d="M254 481h1198v-139h-1198v139zM254 879h1198v-140h-1198v140z" />
    <glyph glyph-name="greater" unicode="&#x3e;" horiz-adv-x="1706" 
d="M264 1159l1178 -483v-129l-1178 -484v154l971 393l-971 396v153z" />
    <glyph glyph-name="question" unicode="?" horiz-adv-x="1118" 
d="M362 358q-33 45 -47 77t-14 63q0 38 25.5 77t105.5 111q44 40 126 106q210 168 210 295q0 96 -66 154.5t-174 58.5q-158 0 -261 -98t-103 -252q0 -17 3 -48q1 -3 1 -5h-12l-72 403h4q37 0 188.5 47.5t274.5 47.5q199 0 329 -94.5t130 -231.5q0 -101 -65.5 -179.5
t-213.5 -152.5q-13 -6 -37 -18q-194 -98 -194 -176q0 -43 26.5 -68.5t83.5 -38.5v-18q-9 1 -19 1.5t-30 0.5q-54 0 -102 -15t-97 -47zM453 276q52 0 90.5 -44t38.5 -105q0 -62 -38 -104.5t-91 -42.5t-90 42.5t-37 104.5t37.5 105.5t89.5 43.5z" />
    <glyph glyph-name="at" unicode="@" horiz-adv-x="2019" 
d="M1186 332q-62 -105 -138 -156t-169 -51q-129 0 -206 92t-77 246q0 109 49.5 216t140.5 195q68 65 146 99.5t155 34.5q90 0 146 -48.5t76 -142.5l51 174h158l-172 -612l-4 -12q-15 -56 -15 -86q0 -51 23.5 -79t66.5 -28q33 0 80.5 20t89.5 52q119 90 179.5 228.5
t60.5 318.5q0 133 -52.5 245t-156.5 201q-90 77 -214 118.5t-267 41.5q-180 0 -335.5 -61.5t-275.5 -180.5q-126 -124 -190 -287t-64 -358q0 -182 57 -313t179 -234q109 -92 254 -141t307 -49q170 0 327 51.5t300 155.5l33 -41q-147 -110 -312.5 -166t-345.5 -56
q-189 0 -345.5 45.5t-274.5 135.5q-151 113 -230.5 276.5t-79.5 360.5q0 203 86.5 380.5t251.5 313.5q134 111 294.5 167t342.5 56q346 0 555 -188.5t209 -499.5q0 -159 -58.5 -298t-166.5 -237q-59 -52 -126 -80t-134 -28q-96 0 -149 53t-60 156zM1104 961
q-54 0 -98.5 -30.5t-90.5 -99.5q-71 -107 -113 -233.5t-42 -228.5q0 -86 39.5 -138.5t101.5 -52.5q65 0 122.5 43.5t111.5 132.5q55 93 88.5 204t33.5 198q0 92 -42 148.5t-111 56.5z" />
    <glyph glyph-name="A" unicode="A" horiz-adv-x="1229" 
d="M401 713q130 -9 217 -41t156 -94l-207 616zM319 29v-29h-401v29q121 26 200 248l3 8l332 925q6 18 9 32t3 26q0 23 -13 39.5t-42 29.5v29h428v-29q-28 -12 -41 -28.5t-13 -40.5q0 -12 3 -25.5t10 -32.5l327 -977q44 -131 74.5 -165.5t81.5 -39.5v-28h-459v29
q44 16 64 46.5t20 80.5q0 175 -146.5 299.5t-391.5 152.5l-119 -340q-15 -43 -22 -76.5t-7 -58.5q0 -49 24 -74t76 -30z" />
    <glyph glyph-name="B" unicode="B" horiz-adv-x="1380" 
d="M74 0v28q72 6 99.5 49t27.5 189v834q0 146 -27.5 189t-99.5 49v28h792q179 0 253.5 -45t74.5 -150q0 -78 -63 -139.5t-242 -146.5q223 -78 332.5 -199.5t109.5 -290.5q0 -199 -137.5 -297t-417.5 -98h-702zM434 829q269 78 385.5 151t116.5 163q0 68 -63.5 100.5
t-198.5 32.5q-166 0 -203 -18.5t-37 -83.5v-345zM434 195q0 -73 37.5 -87t163.5 -14q212 0 335.5 92t123.5 246q0 123 -85 228t-241 176l-22 -8q-225 -80 -312 -103v-530z" />
    <glyph glyph-name="C" unicode="C" horiz-adv-x="1366" 
d="M1329 418h33l-168 -438q-22 2 -43 3t-49 1q-46 0 -131.5 -7.5t-126.5 -7.5q-362 0 -571.5 210.5t-209.5 572.5q0 305 168.5 474t470.5 169q68 0 167 -11.5t132 -11.5q34 0 60.5 8t54.5 27l92 -406h-28q-64 137 -173 208t-255 71q-205 0 -330 -139.5t-125 -368.5
q0 -287 174 -485.5t428 -198.5q142 0 247.5 81t182.5 249z" />
    <glyph glyph-name="D" unicode="D" horiz-adv-x="1485" 
d="M434 291q0 -142 37 -168.5t176 -26.5q241 0 378.5 141t137.5 386q0 263 -167.5 454t-393.5 191q-94 0 -131 -38.5t-37 -152.5v-786zM74 0v29q73 6 100 46t27 181v854q0 141 -27 181t-100 46v29h520q154 0 279 -35t225 -106q152 -108 235.5 -272.5t83.5 -356.5
q0 -135 -50 -250t-146 -199q-90 -78 -202.5 -112.5t-293.5 -34.5h-651z" />
    <glyph glyph-name="E" unicode="E" horiz-adv-x="1270" 
d="M74 0v28q72 6 99.5 49t27.5 189v834q0 146 -27.5 189t-99.5 49v28h819q46 0 76.5 10t48.5 31l106 -446h-28q-63 142 -196 223.5t-304 81.5q-99 0 -130.5 -29.5t-31.5 -128.5v-121h148q119 0 160.5 27t54.5 102h28l76 -475h-29q-49 140 -116.5 190t-204.5 50h-117v-578
q0 -136 45 -172.5t166 -36.5q182 0 326.5 105.5t242.5 310.5h27l-170 -533q-21 12 -45 17.5t-74 5.5h-878z" />
    <glyph glyph-name="F" unicode="F" horiz-adv-x="1133" 
d="M74 0v28q72 6 99.5 49t27.5 189v834q0 146 -27.5 189t-99.5 49v28h850q46 0 76.5 10t48.5 31l104 -446h-27q-68 150 -201.5 227.5t-326.5 77.5q-100 0 -132 -29t-32 -133v-129h156q117 0 161 27t56 102h27l75 -477h-26q-44 134 -115.5 186.5t-206.5 52.5h-127v-610
q0 -141 27 -181t100 -46v-29h-487z" />
    <glyph glyph-name="G" unicode="G" horiz-adv-x="1489" 
d="M1468 0h-346q-40 0 -119.5 -5t-119.5 -5q-392 0 -606 201.5t-214 570.5q0 301 172.5 467t485.5 166q75 0 174 -11.5t125 -11.5q24 0 49.5 8.5t56.5 26.5l93 -406h-29q-69 140 -175.5 209.5t-252.5 69.5q-209 0 -336 -139t-127 -369q0 -289 175.5 -485.5t438.5 -196.5
q119 0 162 33.5t43 130.5v397q0 145 -28 189t-101 49v29h479v-29q-71 -5 -99 -48t-28 -190v-385q0 -146 27.5 -189t99.5 -48v-29z" />
    <glyph glyph-name="H" unicode="H" horiz-adv-x="1464" 
d="M434 985h596v115q0 151 -27 191t-100 46v29h488v-29q-73 -6 -100 -46t-27 -191v-834q0 -151 27 -191t100 -46v-29h-488v29q73 6 100 46t27 191v617h-596v-617q0 -151 27 -191t100 -46v-29h-487v29q73 6 100 46t27 191v834q0 151 -27 191t-100 46v29h487v-29
q-73 -6 -100 -46t-27 -191v-115z" />
    <glyph glyph-name="I" unicode="I" horiz-adv-x="635" 
d="M561 1366v-29q-73 -6 -100 -46t-27 -181v-854q0 -141 27 -181t100 -46v-29h-487v29q73 6 100 46t27 181v854q0 141 -27 181t-100 46v29h487z" />
    <glyph glyph-name="J" unicode="J" horiz-adv-x="1020" 
d="M-74 205l199 342l29 -17q-19 -47 -28 -91.5t-9 -86.5q0 -124 70.5 -198t187.5 -74q71 0 123 32.5t84 96.5q16 33 23 80.5t7 144.5v35v631q0 150 -31 193.5t-114 43.5v29h506v-28q-73 -6 -101 -50t-28 -188v-631q0 -155 -18 -224t-60 -118q-60 -71 -165 -113.5t-224 -42.5
q-131 0 -241.5 57.5t-209.5 176.5z" />
    <glyph glyph-name="K" unicode="K" horiz-adv-x="1356" 
d="M434 866l217 170q103 79 164.5 148t61.5 102q0 22 -15.5 36t-40.5 16v28h498v-29q-83 -6 -166.5 -50.5t-218.5 -162.5l-143 -123q129 -112 242.5 -271t185.5 -333q17 -42 44 -116q84 -229 191 -252v-29h-461v29q34 6 49 24.5t15 55.5q0 121 -121 337.5t-313 415.5
l-189 -147v-449q0 -146 27.5 -189t99.5 -49v-28h-487v28q72 6 99.5 49t27.5 189v834q0 146 -27.5 189t-99.5 49v28h487v-28q-72 -6 -99.5 -49t-27.5 -189v-234z" />
    <glyph glyph-name="L" unicode="L" horiz-adv-x="1147" 
d="M1112 510h29l-191 -533q-20 12 -44.5 17.5t-74.5 5.5h-757v28q72 6 99.5 49t27.5 189v834q0 146 -27.5 189t-99.5 49v28h487v-28q-72 -6 -99.5 -49t-27.5 -189v-791q0 -142 31.5 -179.5t118.5 -37.5q166 0 289 97t239 321z" />
    <glyph glyph-name="M" unicode="M" horiz-adv-x="1587" 
d="M1028 1212q14 23 21.5 41.5t7.5 30.5q0 18 -11.5 32t-31.5 22v28h504l-1 -29q-73 -5 -100.5 -49t-27.5 -188v-834q0 -144 28 -188t100 -49l1 -29h-490v28q73 6 101 50t28 188v942l-434 -725l-397 709v-926q0 -146 27 -189t99 -48l1 -29h-390l1 29q73 5 101 49t28 188v834
q0 144 -28 188t-101 49l-1 29h504v-29q-20 -7 -31.5 -21t-11.5 -32q0 -11 6.5 -27.5t22.5 -44.5l231 -407z" />
    <glyph glyph-name="N" unicode="N" horiz-adv-x="1341" 
d="M326 1192v-926q0 -146 27 -189t99 -48l1 -29h-390l1 29q73 5 101 49t28 188v834q0 144 -28 188t-101 49l-1 29h496v-29q-10 -4 -15 -11t-5 -17q0 -15 29 -41q6 -5 7 -6l445 -416v368q0 65 -22.5 85.5t-88.5 37.5v29h371v-28q-73 -6 -101 -50t-28 -188v-834
q0 -144 28 -188t101 -50v-28h-389v28q73 6 101 50t28 188v275z" />
    <glyph glyph-name="O" unicode="O" horiz-adv-x="1575" 
d="M311 758q0 -126 41 -249t115 -218q76 -101 169.5 -152t201.5 -51q183 0 305.5 145.5t122.5 368.5q0 278 -156 479t-371 201q-185 0 -306.5 -147t-121.5 -377zM66 682q0 304 208 508.5t512 204.5q305 0 513 -204.5t208 -508.5q0 -303 -207.5 -507t-513.5 -204
q-305 0 -512.5 204t-207.5 507z" />
    <glyph glyph-name="P" unicode="P" horiz-adv-x="1157" 
d="M434 743q274 86 385 166.5t111 186.5q0 94 -69.5 134t-239.5 40q-129 0 -158 -12t-29 -66v-449zM579 29l1 -29h-506v28q72 6 99.5 49t27.5 189v834q0 146 -27.5 189t-99.5 49v28h786q159 0 238.5 -58t79.5 -175q0 -161 -182.5 -284t-561.5 -218v-365q0 -156 30.5 -193
t114.5 -44z" />
    <glyph glyph-name="Q" unicode="Q" horiz-adv-x="1575" 
d="M1073 166q92 70 142.5 184t50.5 252q0 278 -156 479t-371 201q-186 0 -307 -148t-121 -382q0 -115 32.5 -221t98.5 -212q55 32 118 48t128 16q124 0 213.5 -50t171.5 -167zM461 297q75 -101 169.5 -155t194.5 -54q10 0 33 1.5t53 4.5q-100 126 -180.5 181t-161.5 55
q-29 0 -55.5 -8t-52.5 -25zM973 -8q-65 -10 -112.5 -15.5t-74.5 -5.5q-307 0 -513.5 203.5t-206.5 507.5t208 508.5t512 204.5q305 0 513 -204.5t208 -508.5q0 -197 -89 -353t-265 -266q45 -59 106.5 -90.5t133.5 -31.5q74 0 108.5 40t34.5 125h29q5 -35 7.5 -59.5
t2.5 -44.5q0 -117 -70 -189.5t-182 -72.5q-94 0 -171.5 54t-178.5 198z" />
    <glyph glyph-name="R" unicode="R" horiz-adv-x="1251" 
d="M434 754q246 75 357.5 156.5t111.5 185.5q0 86 -62 126t-198 40q-130 0 -169.5 -23.5t-39.5 -124.5v-360zM434 266q0 -146 27.5 -189t99.5 -49v-28h-487v28q72 6 99.5 49t27.5 189v834q0 146 -27.5 189t-99.5 49v28h784q140 0 211.5 -53t71.5 -156q0 -98 -63.5 -175
t-223.5 -167q103 -126 186 -270.5t140 -295.5l15 -42q55 -153 142 -178v-29h-428v29q42 16 56 32.5t14 44.5q0 102 -83.5 259t-244.5 358q-38 -17 -85.5 -32.5t-131.5 -37.5v-387z" />
    <glyph glyph-name="S" unicode="S" horiz-adv-x="1247" 
d="M166 -4l-111 534h35q55 -214 188.5 -331t323.5 -117q162 0 268.5 90.5t106.5 222.5q0 106 -78 169t-317 130q-295 83 -383 159t-88 204q0 147 116.5 242.5t302.5 95.5q106 0 216.5 -19.5t117.5 -19.5q33 0 52.5 6.5t35.5 21.5l90 -423h-28q-63 159 -177 241t-274 82
q-111 0 -184.5 -48.5t-73.5 -119.5q0 -104 285 -184q46 -13 72 -21q311 -90 415.5 -188.5t104.5 -269.5q0 -209 -164 -345.5t-422 -136.5q-104 0 -224 30t-128 30q-17 0 -36.5 -9t-41.5 -26z" />
    <glyph glyph-name="T" unicode="T" horiz-adv-x="1223" 
d="M1143 1389l94 -426h-29q-53 158 -166 228.5t-315 70.5v-1006q0 -139 27.5 -180t101.5 -47v-29h-489v29q74 6 101.5 47t27.5 180v1006q-203 0 -316 -70.5t-166 -228.5h-28l96 426q19 -13 39 -18t53 -5h875q34 0 54.5 5.5t39.5 17.5z" />
    <glyph glyph-name="U" unicode="U" horiz-adv-x="1331" 
d="M55 1337v29h510v-28q-83 -12 -117.5 -67t-44.5 -245l-22 -455q-2 -32 -3 -63t-1 -64q0 -178 85.5 -265t260.5 -87q70 0 135.5 25t108.5 67q41 42 59 106t18 177q0 46 -0.5 70t-1.5 45l-12 288q-13 290 -53 373.5t-139 93.5v29h452v-29q-64 -7 -101.5 -55.5t-37.5 -122.5
q0 -14 2 -52q1 -22 2 -36l16 -339q2 -39 7.5 -128.5t5.5 -134.5q0 -248 -135.5 -373t-403.5 -125q-120 0 -212 28.5t-154 84.5q-69 61 -99 147t-30 234q0 42 0.5 65t1.5 42l18 538q0 9 1 27t1 26q0 96 -26 133t-91 41z" />
    <glyph glyph-name="V" unicode="V" horiz-adv-x="1208" 
d="M756 186q-15 -40 -22 -63t-7 -31q0 -24 15 -41.5t38 -21.5v-29h-391v29q30 6 47 24.5t17 46.5q0 27 -22 90q-5 14 -7 21l-318 928q-4 13 -11 35q-47 144 -128 163v29h443v-29q-47 -14 -66.5 -37.5t-19.5 -64.5q0 -17 4 -35l4 -18q0 -3 9 -30q7 -22 11 -35l285 -867
l309 870q16 43 23.5 72.5t7.5 48.5q0 39 -23.5 62t-74.5 34v29h393v-29q-53 -8 -90 -54t-84 -173z" />
    <glyph glyph-name="W" unicode="W" horiz-adv-x="1683" 
d="M535 244l208 876q10 38 14.5 64.5t4.5 42.5q0 49 -22.5 73.5t-80.5 36.5v29h422v-29q-46 -13 -66 -36.5t-20 -63.5q0 -31 21 -113q1 -5 2 -8l205 -872l204 876q1 3 3 10q14 53 14 93q0 51 -30 79.5t-89 34.5v29h406v-29q-60 -10 -97 -62t-65 -165l-234 -924q-1 -3 -3 -11
q-15 -58 -15 -77q0 -28 14 -46.5t39 -22.5v-29h-401v29q30 6 42.5 22t12.5 49q0 28 -14 84q-4 17 -6 26l-168 720l-185 -744q-1 -6 -4 -18q-12 -54 -12 -76q0 -30 10 -45t33 -19v-28h-395v29q28 5 42.5 23t14.5 48q0 10 -3.5 30t-17.5 81l-198 928q-26 118 -51.5 152.5
t-75.5 45.5v29h428v-29q-49 -15 -67.5 -39t-18.5 -69q0 -22 3.5 -51t10.5 -61z" />
    <glyph glyph-name="X" unicode="X" horiz-adv-x="1219" 
d="M364 29l1 -29h-392v29q87 20 179 160l4 6l346 536l-242 385q-74 118 -116.5 161t-90.5 60v29h484v-29q-37 -6 -56.5 -27.5t-19.5 -56.5q0 -14 11.5 -39t33.5 -59l133 -215l152 234q24 38 35.5 63.5t11.5 40.5q0 23 -16.5 36t-57.5 23v29h395v-29q-71 -19 -128.5 -68
t-115.5 -139l-202 -309l315 -512q105 -171 157.5 -221t112.5 -59v-29h-518v29q37 7 57.5 30t20.5 56q0 19 -8.5 45t-24.5 51l-247 399l-259 -401q-19 -32 -27.5 -56t-8.5 -47q0 -35 19.5 -53.5t61.5 -23.5z" />
    <glyph glyph-name="Y" unicode="Y" horiz-adv-x="1118" 
d="M657 266q0 -146 27.5 -189t99.5 -48v-29h-487v28q72 6 99.5 49t27.5 189v371l-336 559q-1 2 -3 5q-73 120 -167 136v29h514v-28q-46 -3 -71 -25.5t-25 -61.5q0 -19 12 -50t33 -66l211 -349l227 349q19 27 29 58.5t10 63.5q0 36 -21 55.5t-65 25.5v28h426v-29
q-61 -22 -108 -63.5t-117 -149.5l-316 -479v-379z" />
    <glyph glyph-name="Z" unicode="Z" horiz-adv-x="1247" 
d="M31 0v29l813 1233h-180q-234 0 -355 -74.5t-184 -251.5h-29l97 455q21 -13 42.5 -19t53.5 -6h14h854v-29l-815 -1231h150q252 0 412.5 90.5t269.5 292.5h28l-184 -514q-18 13 -43.5 19t-69.5 6h-874z" />
    <glyph glyph-name="bracketleft" unicode="[" horiz-adv-x="664" 
d="M334 -248h254v-84h-416v1698h416v-86h-254v-1528z" />
    <glyph glyph-name="backslash" unicode="\" horiz-adv-x="569" 
d="M524 -190l-551 1585h125l553 -1585h-127z" />
    <glyph glyph-name="bracketright" unicode="]" horiz-adv-x="664" 
d="M330 -248v1528h-254v86h416v-1698h-416v84h254z" />
    <glyph glyph-name="asciicircum" unicode="^" horiz-adv-x="2048" 
d="M926 1462h194l512 -565h-98l-512 420l-514 -420h-96z" />
    <glyph glyph-name="underscore" unicode="_" horiz-adv-x="1024" 
d="M0 -340h1024v-143h-1024v143z" />
    <glyph glyph-name="grave" unicode="`" horiz-adv-x="1024" 
d="M688 1163h-74l-301 183q-48 29 -66 50.5t-18 49.5q0 32 22.5 55t53.5 23q25 0 53 -15.5t54 -44.5z" />
    <glyph glyph-name="a" unicode="a" horiz-adv-x="1128" 
d="M1100 0h-293q-21 27 -34.5 63t-23.5 94q-76 -99 -169.5 -143.5t-227.5 -44.5q-153 0 -241 72t-88 197q0 170 171.5 277t555.5 173v88q0 86 -51.5 127t-157.5 41q-146 0 -254.5 -69.5t-167.5 -200.5h-19l50 336q24 -10 43 -15.5t30 -5.5q15 0 140.5 32t234.5 32
q99 0 180 -21.5t119 -56.5q40 -37 57 -85.5t17 -170.5v-479q0 -110 27.5 -154t101.5 -68v-18zM750 598q-244 -48 -372 -134.5t-128 -203.5q0 -73 48.5 -116.5t131.5 -43.5q75 0 142 31.5t110 87.5q36 47 52 111.5t16 179.5v88z" />
    <glyph glyph-name="b" unicode="b" horiz-adv-x="1241" 
d="M379 915v-583q0 -138 41 -187t147 -49q180 0 282.5 106.5t102.5 291.5q0 191 -129 308.5t-340 117.5q-17 0 -67 -3q-24 -1 -37 -2zM514 1024q162 0 267.5 -29t191.5 -94q98 -74 155.5 -185.5t57.5 -228.5q0 -129 -58.5 -237t-162.5 -172q-67 -41 -159 -59.5t-243 -18.5
h-502v18q57 0 81 37t24 125v1008q0 108 -22.5 138.5t-81.5 35.5l-1 20l318 64v-422h135z" />
    <glyph glyph-name="c" unicode="c" horiz-adv-x="1014" 
d="M985 297l21 -6l-99 -309q-26 3 -41 4.5t-22 1.5q-15 0 -83.5 -8.5t-123.5 -8.5q-261 0 -424.5 162t-163.5 412q0 225 128.5 364.5t338.5 139.5q32 0 107.5 -8.5t119.5 -8.5q23 0 47.5 5t55.5 16l63 -332h-18q-55 105 -130.5 159t-166.5 54q-141 0 -223 -103t-82 -280
q0 -213 98.5 -335t269.5 -122q106 0 189 51.5t139 151.5z" />
    <glyph glyph-name="d" unicode="d" 
d="M862 111v608q0 129 -40.5 170t-143.5 41q-187 0 -288 -108t-101 -308q0 -196 116 -302t330 -106q34 1 114 4q9 0 13 1zM1075 193q0 -108 22 -138.5t83 -36.5v-18h-500q-150 0 -242 18.5t-159 59.5q-107 66 -164.5 177t-57.5 251q0 131 52 239t149 179q74 54 173.5 77
t297.5 23h133v164q0 108 -22.5 138.5t-81.5 35.5v20l317 64v-1253z" />
    <glyph glyph-name="e" unicode="e" horiz-adv-x="1147" 
d="M844 731q-41 109 -105.5 162t-156.5 53q-126 0 -204.5 -95.5t-78.5 -252.5v-20zM1090 352l18 -6l-105 -358q-9 1 -18.5 1.5t-30.5 0.5q-43 0 -132.5 -10.5t-137.5 -10.5q-274 0 -450.5 159t-176.5 402q0 223 156.5 373t390.5 150q183 0 306 -90t180 -265l-781 -221
q32 -184 139.5 -282.5t276.5 -98.5q127 0 216.5 63t148.5 193z" />
    <glyph glyph-name="f" unicode="f" horiz-adv-x="610" 
d="M176 901h-131v19q126 33 137 172q3 44 6 69q19 130 117.5 207.5t247.5 77.5q47 0 97.5 -9t111.5 -28l-62 -217l-18 4v4q0 63 -40 101t-105 38q-78 0 -113 -48t-35 -156v-136h119q38 0 62.5 7t47.5 22l-55 -143q-19 8 -40.5 12t-61.5 4h-72v-670q0 -117 25.5 -160.5
t91.5 -52.5v-18h-445v18h7q58 0 83 37t25 125v721z" />
    <glyph glyph-name="g" unicode="g" horiz-adv-x="1237" 
d="M1174 1024v-18q-57 0 -81 -37t-24 -125v-619q0 -62 11.5 -89.5t46.5 -64.5q6 -6 19 -20q79 -81 79 -168q0 -158 -161.5 -251t-438.5 -93q-183 0 -324.5 53.5t-245.5 161.5l226 230l18 -11q-10 -22 -15 -42.5t-5 -41.5q0 -111 94 -177t256 -66q165 0 263.5 59t98.5 158
q0 56 -27 86t-90 41q-41 8 -168 11.5t-212 18.5q-181 32 -310 184.5t-129 338.5q0 226 148.5 353.5t414.5 127.5h556zM856 705q0 149 -42 193t-148 44q-176 0 -277.5 -108.5t-101.5 -294.5q0 -203 126.5 -323t340.5 -120q19 0 76 3q18 1 26 1v605z" />
    <glyph glyph-name="h" unicode="h" 
d="M61 0v18q57 0 81 37t24 125v1008q0 108 -22.5 138.5t-81.5 35.5l-1 20l318 64v-631q102 111 211 167t223 56q143 0 202.5 -78.5t59.5 -283.5v-416q0 -143 25.5 -184t97.5 -58v-18h-453v18q66 6 91.5 47t25.5 160v439q0 141 -36.5 191t-129.5 50q-59 0 -122 -30.5
t-113 -83.5q-44 -47 -63 -111t-19 -186v-263q0 -117 25.5 -160.5t91.5 -52.5v-18h-435z" />
    <glyph glyph-name="i" unicode="i" horiz-adv-x="555" 
d="M272 1446q54 0 94 -42.5t40 -100.5q0 -60 -39 -101t-95 -41q-55 0 -94 41t-39 101t39 101.5t94 41.5zM72 0v18q56 0 80 37t24 125v600q0 87 -24 123.5t-80 36.5v21l317 63v-793q0 -117 25.5 -160.5t91.5 -52.5v-18h-434z" />
    <glyph glyph-name="j" unicode="j" horiz-adv-x="563" 
d="M293 1446q54 0 94.5 -43t40.5 -100q0 -60 -39.5 -101t-95.5 -41t-94.5 41t-38.5 101t39 101.5t94 41.5zM197 780q0 87 -24 123.5t-81 36.5v21l318 63v-1180q0 -154 -93 -226.5t-290 -72.5q-114 0 -203.5 28t-155.5 83l197 248l14 -13q-12 -24 -18 -47t-6 -45
q0 -67 49 -110t127 -43q90 0 128 45t38 172v917z" />
    <glyph glyph-name="k" unicode="k" horiz-adv-x="1124" 
d="M379 231q0 -117 25.5 -160.5t91.5 -52.5v-18h-435v18q57 0 81 37t24 125v1008q0 108 -22.5 138.5t-81.5 35.5l-1 20l318 64v-846l244 223q55 50 76.5 78t21.5 47q0 21 -16.5 36.5t-45.5 21.5v18h420v-18q-115 -42 -211.5 -108t-187.5 -167q94 -87 176 -203t162 -276
q12 -24 32 -67q74 -158 150 -167v-18h-438v18q31 4 48 24.5t17 53.5q0 66 -84 213.5t-217 294.5l-147 -123v-250z" />
    <glyph glyph-name="l" unicode="l" horiz-adv-x="545" 
d="M61 0v18q57 0 81 37t24 125v1008q0 108 -22.5 138.5t-81.5 35.5l-1 20l318 64v-1215q0 -117 25.5 -160.5t91.5 -52.5v-18h-435z" />
    <glyph glyph-name="m" unicode="m" horiz-adv-x="1915" 
d="M1075 815q100 111 206.5 167t215.5 56q143 0 202.5 -77.5t59.5 -284.5v-416q0 -144 25 -184.5t94 -57.5v-18h-442v18q64 6 89 47.5t25 159.5v439q0 139 -37 190t-127 51q-57 0 -118.5 -30.5t-110.5 -83.5q-44 -48 -63 -106t-19 -191v-234q0 -143 25.5 -184t97.5 -58v-18
h-453v18q66 6 91.5 47t25.5 160v439q0 141 -36.5 191t-129.5 50q-59 0 -122 -30.5t-113 -83.5q-44 -48 -63 -106t-19 -191v-263q0 -117 25.5 -160.5t91.5 -52.5v-18h-435v18q57 0 81 37t24 125v600q0 94 -27.5 143.5t-79.5 49.5h-8v22l275 29q22 -34 35 -85t18 -123
q103 111 211 166.5t223 55.5q111 0 176 -55.5t86 -167.5z" />
    <glyph glyph-name="n" unicode="n" 
d="M61 0v18q57 0 81 37t24 125v600q0 95 -27.5 144t-81.5 49h-4l-2 22l275 29q22 -34 35 -85t18 -123q102 110 211 166t223 56q143 0 202.5 -78.5t59.5 -283.5v-416q0 -143 25.5 -184t97.5 -58v-18h-453v18q66 6 91.5 47t25.5 160v439q0 141 -36.5 191t-129.5 50
q-59 0 -122 -30.5t-113 -83.5q-44 -47 -63 -111t-19 -186v-263q0 -117 25.5 -160.5t91.5 -52.5v-18h-435z" />
    <glyph glyph-name="o" unicode="o" 
d="M57 512q0 230 160 385.5t399 155.5q240 0 400 -155.5t160 -385.5q0 -231 -159.5 -386t-400.5 -155q-239 0 -399 155.5t-160 385.5zM606 956q-144 0 -228.5 -112.5t-84.5 -308.5q0 -217 90 -340t246 -123q144 0 227.5 113t83.5 313q0 212 -90.5 335t-243.5 123z" />
    <glyph glyph-name="p" unicode="p" horiz-adv-x="1241" 
d="M379 924v-592q0 -139 40.5 -185.5t143.5 -46.5q183 0 284 107t101 299q0 204 -119 313t-344 109q-22 0 -82 -3q-16 -1 -24 -1zM166 831q0 84 -24 119t-95 49v25h516q148 0 238.5 -21t163.5 -69q107 -72 164 -183t57 -249q0 -265 -157 -383.5t-515 -118.5h-135v-190
q0 -118 25.5 -161.5t91.5 -51.5v-19h-435v19q57 0 81 36.5t24 124.5v1073z" />
    <glyph glyph-name="q" unicode="q" horiz-adv-x="1241" 
d="M862 690q0 149 -41 194.5t-143 45.5q-178 0 -281.5 -108t-103.5 -296q0 -203 126.5 -322.5t340.5 -119.5q19 0 77 3q17 1 25 1v602zM862 -190v170h-133q-159 0 -266 27.5t-189 88.5q-101 76 -159 192.5t-58 243.5q0 131 58.5 240.5t163.5 173.5q66 41 158 59.5t243 18.5
h514v-25q-71 -14 -95 -49t-24 -119v-1073q0 -88 24 -124.5t81 -36.5v-19h-435v19q66 8 91.5 51.5t25.5 161.5z" />
    <glyph glyph-name="r" unicode="r" horiz-adv-x="782" 
d="M166 780q0 94 -27.5 143.5t-79.5 49.5h-8v22l275 29q24 -41 36.5 -85.5t14.5 -94.5q63 100 146.5 154.5t174.5 54.5q23 0 75 -7q10 -1 15 -2l-45 -204q-38 18 -69.5 26t-63.5 8q-117 0 -174 -96t-57 -295v-252q0 -117 25.5 -160.5t91.5 -52.5v-18h-435v18q57 0 81 37
t24 125v600z" />
    <glyph glyph-name="s" unicode="s" horiz-adv-x="995" 
d="M70 6l-15 420l21 2q26 -159 135 -251.5t270 -92.5q115 0 185.5 48t70.5 124q0 128 -266 199q-48 13 -73 20q-162 45 -234 113t-72 174q0 133 104.5 213t282.5 80q82 0 178.5 -20.5t110.5 -20.5q11 0 27.5 3.5t50.5 12.5l20 -330l-20 -2q-30 119 -125 183.5t-242 64.5
q-87 0 -134.5 -32.5t-47.5 -92.5q0 -100 252 -166q40 -10 62 -16q193 -53 269 -123.5t76 -189.5q0 -161 -131 -258t-352 -97q-95 0 -198 30t-115 30q-11 0 -34 -6.5t-56 -18.5z" />
    <glyph glyph-name="t" unicode="t" horiz-adv-x="674" 
d="M668 205l20 -4l-72 -185q-68 -23 -118 -34t-88 -11q-123 0 -178.5 76.5t-55.5 247.5v606h-151v19q89 27 139.5 96.5t50.5 165.5q0 17 -2 40t-8 64l184 98v-385h148q23 0 45 7t45 22l-54 -143q-19 8 -41 12t-63 4h-80v-565q0 -140 25.5 -185t89.5 -45q45 0 86 25t78 74z
" />
    <glyph glyph-name="u" unicode="u" 
d="M1075 215q0 -93 27 -141.5t78 -48.5h10v-25h-297q-14 39 -21.5 86t-9.5 108q-101 -110 -210.5 -166.5t-223.5 -56.5q-143 0 -202.5 76.5t-59.5 286.5v411q0 117 -23 155.5t-81 39.5l-1 21l318 63v-676q0 -140 37.5 -191t130.5 -51q58 0 120 30.5t113 84.5q44 48 63 106
t19 191v227q0 115 -22 154.5t-82 40.5v21l317 63v-809z" />
    <glyph glyph-name="v" unicode="v" horiz-adv-x="977" 
d="M649 18v-18h-342v18q20 15 27.5 29t7.5 35q0 18 -8 49t-37 113l-203 577q-37 107 -65 142t-72 43v18h403v-18q-32 0 -49.5 -19.5t-17.5 -54.5q0 -23 20 -87q1 -4 2 -7l213 -645l230 616q17 44 23.5 70t6.5 47q0 35 -15.5 56t-43.5 24v18h315v-18q-50 -6 -88.5 -52.5
t-85.5 -167.5l-221 -561q-17 -44 -27 -79t-10 -52q0 -24 9 -42.5t28 -33.5z" />
    <glyph glyph-name="w" unicode="w" horiz-adv-x="1464" 
d="M571 18v-18h-286v18q16 9 22 17.5t6 25.5q0 32 -25 123q-1 3 -1 4l-187 635v2q-47 158 -123 181v18h396v-18q-32 -6 -48 -24t-16 -48q0 -16 5.5 -49.5t15.5 -71.5l149 -604l285 797l297 -807l184 601q2 8 7 24q22 76 22 96q0 31 -17.5 52t-52.5 34v18h309v-18
q-48 -16 -80.5 -61.5t-66.5 -149.5l-195 -596q-24 -73 -30 -98t-6 -40q0 -14 8.5 -24t27.5 -19v-18h-307v18q16 13 22.5 25t6.5 27q0 41 -20 85q-3 7 -5 11l-147 399l-135 -390q-5 -15 -13 -38q-22 -65 -22 -80q0 -8 4.5 -17t15.5 -22z" />
    <glyph glyph-name="x" unicode="x" horiz-adv-x="985" 
d="M244 18v-18h-324v18q71 13 227 220l2 3l228 304l-184 286q-62 97 -99 130t-84 45v18h428v-18q-28 -6 -40.5 -21.5t-12.5 -44.5q0 -25 45 -96q3 -4 4 -6l82 -125l96 128l9 12q51 66 51 99q0 25 -12 36.5t-44 17.5v18h336v-18q-60 -19 -108.5 -55.5t-108.5 -112.5
l-162 -211l256 -389q3 -4 8 -12q120 -180 193 -208v-18h-416l1 19q26 13 35 24.5t9 30.5q0 34 -74 150q-2 3 -3 5l-146 222l-190 -264l-2 -3q-58 -78 -58 -108q0 -27 13.5 -40.5t44.5 -17.5z" />
    <glyph glyph-name="y" unicode="y" horiz-adv-x="967" 
d="M-47 1006v18h405v-18q-30 -8 -43.5 -26t-13.5 -50q0 -33 36 -125q6 -15 9 -23l205 -516l199 565q12 34 16 55.5t4 43.5t-16.5 41.5t-48.5 34.5v18h319v-18q-53 -16 -86.5 -55.5t-73.5 -147.5l-342 -934q-62 -171 -145 -247.5t-205 -76.5q-63 0 -114 20t-105 64l135 275
l16 -6q-8 -30 -11 -44t-3 -22q0 -57 32.5 -91t86.5 -34q87 0 139.5 70t52.5 188q0 84 -71 267v1l-224 572q-36 92 -70.5 136t-82.5 65z" />
    <glyph glyph-name="z" unicode="z" horiz-adv-x="991" 
d="M18 0l607 928h-217q-100 0 -177.5 -51.5t-121.5 -147.5h-19l70 324q24 -16 49 -22.5t65 -6.5h656l-608 -909q45 -7 95.5 -11t104.5 -4q153 0 253 60t159 186h18l-121 -375q-35 15 -73.5 22t-93.5 7h-646z" />
    <glyph glyph-name="braceleft" unicode="{" horiz-adv-x="1024" 
d="M848 1516v-53q-136 -2 -186 -55t-50 -210v-141q0 -227 -59 -308.5t-217 -113.5q159 -32 217.5 -113.5t58.5 -308.5v-141q0 -157 49.5 -209t186.5 -54v-53h-10q-219 0 -301 74t-82 272v207q0 161 -59 221.5t-218 73.5v64q161 13 219 73.5t58 221.5v206q0 199 82 273
t301 74h10z" />
    <glyph glyph-name="bar" unicode="|" horiz-adv-x="1024" 
d="M438 1565h150v-2048h-150v2048z" />
    <glyph glyph-name="braceright" unicode="}" horiz-adv-x="1024" 
d="M176 1516h10q220 0 302.5 -74t82.5 -273v-206q0 -161 58 -221.5t219 -73.5v-64q-161 -13 -219 -73.5t-58 -221.5v-207q0 -198 -82.5 -272t-302.5 -74h-10v53q137 2 186.5 54.5t49.5 208.5v141q0 227 58.5 308.5t217.5 113.5q-158 32 -217 113.5t-59 308.5v141
q0 157 -50 210t-186 55v53z" />
    <glyph glyph-name="asciitilde" unicode="~" horiz-adv-x="1706" 
d="M1530 770v-156q-104 -72 -199 -106.5t-190 -34.5q-93 0 -256 58q-22 8 -34 12q-5 2 -15 5q-176 60 -273 60q-84 0 -175 -37t-210 -120v155q106 72 202 108t185 36q62 0 127.5 -13.5t163.5 -48.5q16 -5 47 -17q159 -57 240 -57q88 0 179.5 37t207.5 119z" />
    <glyph glyph-name="Adieresis" unicode="&#xc4;" horiz-adv-x="1229" 
d="M401 713q130 -9 217 -41t156 -94l-207 616zM319 29v-29h-401v29q121 26 200 248l3 8l332 925q6 18 9 32t3 26q0 23 -13 39.5t-42 29.5v29h428v-29q-28 -12 -41 -28.5t-13 -40.5q0 -12 3 -25.5t10 -32.5l327 -977q44 -131 74.5 -165.5t81.5 -39.5v-28h-459v29
q44 16 64 46.5t20 80.5q0 175 -146.5 299.5t-391.5 152.5l-119 -340q-15 -43 -22 -76.5t-7 -58.5q0 -49 24 -74t76 -30zM692 1667q0 45 34.5 79t80.5 34q45 0 77.5 -33.5t32.5 -79.5q0 -49 -31.5 -81t-78.5 -32q-49 0 -82 33t-33 80zM309 1667q0 45 33.5 79t78.5 34
q47 0 80 -33.5t33 -79.5q0 -48 -32 -80.5t-81 -32.5q-48 0 -80 32.5t-32 80.5z" />
    <glyph glyph-name="Aring" unicode="&#xc5;" horiz-adv-x="1229" 
d="M483 1677q0 -59 41 -100t101 -41q59 0 100 41t41 100q0 60 -41.5 102t-99.5 42q-59 0 -100.5 -42t-41.5 -102zM377 1677q0 104 72 176t176 72t175.5 -72t71.5 -176t-71.5 -175.5t-175.5 -71.5q-105 0 -176.5 71.5t-71.5 175.5zM319 29v-29h-401v29q121 26 200 248l3 8
l332 925q6 18 9 32t3 26q0 23 -13 39.5t-42 29.5v29h428v-29q-28 -12 -41 -28.5t-13 -40.5q0 -12 3 -25.5t10 -32.5l327 -977q44 -131 74.5 -165.5t81.5 -39.5v-28h-459v29q44 16 64 46.5t20 80.5q0 175 -146.5 299.5t-391.5 152.5l-119 -340q-15 -43 -22 -76.5t-7 -58.5
q0 -49 24 -74t76 -30zM401 713q130 -9 217 -41t156 -94l-207 616z" />
    <glyph glyph-name="Ccedilla" unicode="&#xc7;" horiz-adv-x="1366" 
d="M1329 418h33l-168 -438q-22 2 -43 3t-49 1q-46 0 -131.5 -7.5t-126.5 -7.5q-362 0 -571.5 210.5t-209.5 572.5q0 305 168.5 474t470.5 169q68 0 167 -11.5t132 -11.5q34 0 60.5 8t54.5 27l92 -406h-28q-64 137 -173 208t-255 71q-205 0 -330 -139.5t-125 -368.5
q0 -287 174 -485.5t428 -198.5q142 0 247.5 81t182.5 249zM504 -379l39 90q59 -37 119.5 -57.5t112.5 -20.5q56 0 83 22t27 69q0 43 -27.5 64.5t-82.5 21.5q-4 0 -16.5 -1.5t-43.5 -4.5v196h66v-115q16 2 31.5 3t37.5 1q81 0 130 -45.5t49 -119.5q0 -84 -59.5 -131.5
t-166.5 -47.5q-58 0 -128.5 18t-170.5 58z" />
    <glyph glyph-name="Eacute" unicode="&#xc9;" horiz-adv-x="1270" 
d="M74 0v28q72 6 99.5 49t27.5 189v834q0 146 -27.5 189t-99.5 49v28h819q46 0 76.5 10t48.5 31l106 -446h-28q-63 142 -196 223.5t-304 81.5q-99 0 -130.5 -29.5t-31.5 -128.5v-121h148q119 0 160.5 27t54.5 102h28l76 -475h-29q-49 140 -116.5 190t-204.5 50h-117v-578
q0 -136 45 -172.5t166 -36.5q182 0 326.5 105.5t242.5 310.5h27l-170 -533q-21 12 -45 17.5t-74 5.5h-878zM459 1505l276 299q27 30 55 46t52 16q31 0 53.5 -23t22.5 -55q0 -28 -18 -49.5t-66 -50.5l-301 -183h-74z" />
    <glyph glyph-name="Ntilde" unicode="&#xd1;" horiz-adv-x="1341" 
d="M326 1192v-926q0 -146 27 -189t99 -48l1 -29h-390l1 29q73 5 101 49t28 188v834q0 144 -28 188t-101 49l-1 29h496v-29q-10 -4 -15 -11t-5 -17q0 -15 29 -41q6 -5 7 -6l445 -416v368q0 65 -22.5 85.5t-88.5 37.5v29h371v-28q-73 -6 -101 -50t-28 -188v-834
q0 -144 28 -188t101 -50v-28h-389v28q73 6 101 50t28 188v275zM955 1823q-22 -113 -71.5 -171.5t-123.5 -58.5q-11 0 -23.5 1.5t-28.5 5.5l-106 26q-17 4 -30.5 6t-22.5 2q-42 0 -64.5 -19.5t-37.5 -70.5h-58q22 115 72 174.5t125 59.5q9 0 24.5 -2.5t39.5 -8.5l108 -26
q12 -3 24.5 -4.5t26.5 -1.5q34 0 56 21.5t32 66.5h58z" />
    <glyph glyph-name="Odieresis" unicode="&#xd6;" horiz-adv-x="1575" 
d="M311 758q0 -126 41 -249t115 -218q76 -101 169.5 -152t201.5 -51q183 0 305.5 145.5t122.5 368.5q0 278 -156 479t-371 201q-185 0 -306.5 -147t-121.5 -377zM66 682q0 304 208 508.5t512 204.5q305 0 513 -204.5t208 -508.5q0 -303 -207.5 -507t-513.5 -204
q-305 0 -512.5 204t-207.5 507zM866 1667q0 45 34.5 79t80.5 34q45 0 77.5 -33.5t32.5 -79.5q0 -49 -31.5 -81t-78.5 -32q-49 0 -82 33t-33 80zM483 1667q0 45 33.5 79t78.5 34q47 0 80 -33.5t33 -79.5q0 -48 -32 -80.5t-81 -32.5q-48 0 -80 32.5t-32 80.5z" />
    <glyph glyph-name="Udieresis" unicode="&#xdc;" horiz-adv-x="1331" 
d="M55 1337v29h510v-28q-83 -12 -117.5 -67t-44.5 -245l-22 -455q-2 -32 -3 -63t-1 -64q0 -178 85.5 -265t260.5 -87q70 0 135.5 25t108.5 67q41 42 59 106t18 177q0 46 -0.5 70t-1.5 45l-12 288q-13 290 -53 373.5t-139 93.5v29h452v-29q-64 -7 -101.5 -55.5t-37.5 -122.5
q0 -14 2 -52q1 -22 2 -36l16 -339q2 -39 7.5 -128.5t5.5 -134.5q0 -248 -135.5 -373t-403.5 -125q-120 0 -212 28.5t-154 84.5q-69 61 -99 147t-30 234q0 42 0.5 65t1.5 42l18 538q0 9 1 27t1 26q0 96 -26 133t-91 41zM744 1667q0 45 34.5 79t80.5 34q45 0 77.5 -33.5
t32.5 -79.5q0 -49 -31.5 -81t-78.5 -32q-49 0 -82 33t-33 80zM361 1667q0 45 33.5 79t78.5 34q47 0 80 -33.5t33 -79.5q0 -48 -32 -80.5t-81 -32.5q-48 0 -80 32.5t-32 80.5z" />
    <glyph glyph-name="aacute" unicode="&#xe1;" horiz-adv-x="1128" 
d="M1100 0h-293q-21 27 -34.5 63t-23.5 94q-76 -99 -169.5 -143.5t-227.5 -44.5q-153 0 -241 72t-88 197q0 170 171.5 277t555.5 173v88q0 86 -51.5 127t-157.5 41q-146 0 -254.5 -69.5t-167.5 -200.5h-19l50 336q24 -10 43 -15.5t30 -5.5q15 0 140.5 32t234.5 32
q99 0 180 -21.5t119 -56.5q40 -37 57 -85.5t17 -170.5v-479q0 -110 27.5 -154t101.5 -68v-18zM750 598q-244 -48 -372 -134.5t-128 -203.5q0 -73 48.5 -116.5t131.5 -43.5q75 0 142 31.5t110 87.5q36 47 52 111.5t16 179.5v88zM389 1163l276 299q27 30 55 46t52 16
q31 0 53.5 -23t22.5 -55q0 -28 -18 -49.5t-66 -50.5l-301 -183h-74z" />
    <glyph glyph-name="agrave" unicode="&#xe0;" horiz-adv-x="1128" 
d="M1100 0h-293q-21 27 -34.5 63t-23.5 94q-76 -99 -169.5 -143.5t-227.5 -44.5q-153 0 -241 72t-88 197q0 170 171.5 277t555.5 173v88q0 86 -51.5 127t-157.5 41q-146 0 -254.5 -69.5t-167.5 -200.5h-19l50 336q24 -10 43 -15.5t30 -5.5q15 0 140.5 32t234.5 32
q99 0 180 -21.5t119 -56.5q40 -37 57 -85.5t17 -170.5v-479q0 -110 27.5 -154t101.5 -68v-18zM750 598q-244 -48 -372 -134.5t-128 -203.5q0 -73 48.5 -116.5t131.5 -43.5q75 0 142 31.5t110 87.5q36 47 52 111.5t16 179.5v88zM741 1163h-74l-301 183q-48 29 -66 50.5
t-18 49.5q0 32 22.5 55t53.5 23q25 0 53 -15.5t54 -44.5z" />
    <glyph glyph-name="acircumflex" unicode="&#xe2;" horiz-adv-x="1128" 
d="M1100 0h-293q-21 27 -34.5 63t-23.5 94q-76 -99 -169.5 -143.5t-227.5 -44.5q-153 0 -241 72t-88 197q0 170 171.5 277t555.5 173v88q0 86 -51.5 127t-157.5 41q-146 0 -254.5 -69.5t-167.5 -200.5h-19l50 336q24 -10 43 -15.5t30 -5.5q15 0 140.5 32t234.5 32
q99 0 180 -21.5t119 -56.5q40 -37 57 -85.5t17 -170.5v-479q0 -110 27.5 -154t101.5 -68v-18zM750 598q-244 -48 -372 -134.5t-128 -203.5q0 -73 48.5 -116.5t131.5 -43.5q75 0 142 31.5t110 87.5q36 47 52 111.5t16 179.5v88zM270 1163l227 348h134l229 -348h-74l-221 195
l-221 -195h-74z" />
    <glyph glyph-name="adieresis" unicode="&#xe4;" horiz-adv-x="1128" 
d="M1100 0h-293q-21 27 -34.5 63t-23.5 94q-76 -99 -169.5 -143.5t-227.5 -44.5q-153 0 -241 72t-88 197q0 170 171.5 277t555.5 173v88q0 86 -51.5 127t-157.5 41q-146 0 -254.5 -69.5t-167.5 -200.5h-19l50 336q24 -10 43 -15.5t30 -5.5q15 0 140.5 32t234.5 32
q99 0 180 -21.5t119 -56.5q40 -37 57 -85.5t17 -170.5v-479q0 -110 27.5 -154t101.5 -68v-18zM750 598q-244 -48 -372 -134.5t-128 -203.5q0 -73 48.5 -116.5t131.5 -43.5q75 0 142 31.5t110 87.5q36 47 52 111.5t16 179.5v88zM643 1325q0 45 34.5 79t80.5 34
q45 0 77.5 -33.5t32.5 -79.5q0 -49 -31.5 -81t-78.5 -32q-49 0 -82 33t-33 80zM260 1325q0 45 33.5 79t78.5 34q47 0 80 -33.5t33 -79.5q0 -48 -32 -80.5t-81 -32.5q-48 0 -80 32.5t-32 80.5z" />
    <glyph glyph-name="atilde" unicode="&#xe3;" horiz-adv-x="1128" 
d="M1100 0h-293q-21 27 -34.5 63t-23.5 94q-76 -99 -169.5 -143.5t-227.5 -44.5q-153 0 -241 72t-88 197q0 170 171.5 277t555.5 173v88q0 86 -51.5 127t-157.5 41q-146 0 -254.5 -69.5t-167.5 -200.5h-19l50 336q24 -10 43 -15.5t30 -5.5q15 0 140.5 32t234.5 32
q99 0 180 -21.5t119 -56.5q40 -37 57 -85.5t17 -170.5v-479q0 -110 27.5 -154t101.5 -68v-18zM750 598q-244 -48 -372 -134.5t-128 -203.5q0 -73 48.5 -116.5t131.5 -43.5q75 0 142 31.5t110 87.5q36 47 52 111.5t16 179.5v88zM848 1481q-22 -113 -71.5 -171.5t-123.5 -58.5
q-11 0 -23.5 1.5t-28.5 5.5l-106 26q-17 4 -30.5 6t-22.5 2q-42 0 -64.5 -19.5t-37.5 -70.5h-58q22 115 72 174.5t125 59.5q9 0 24.5 -2.5t39.5 -8.5l108 -26q12 -3 24.5 -4.5t26.5 -1.5q34 0 56 21.5t32 66.5h58z" />
    <glyph glyph-name="aring" unicode="&#xe5;" horiz-adv-x="1128" 
d="M750 598q-244 -48 -372 -134.5t-128 -203.5q0 -73 48.5 -116.5t131.5 -43.5q75 0 142 31.5t110 87.5q36 47 52 111.5t16 179.5v88zM410 1366q0 -59 41 -100t100 -41t100 41t41 100q0 60 -41 101.5t-100 41.5t-100 -42t-41 -101zM303 1366q0 104 72 176t176 72t176 -72
t72 -176t-72 -176t-176 -72q-105 0 -176.5 72t-71.5 176zM1100 0h-293q-21 27 -34.5 63t-23.5 94q-76 -99 -169.5 -143.5t-227.5 -44.5q-153 0 -241 72t-88 197q0 170 171.5 277t555.5 173v88q0 86 -51.5 127t-157.5 41q-146 0 -254.5 -69.5t-167.5 -200.5h-19l50 336
q24 -10 43 -15.5t30 -5.5q15 0 140.5 32t234.5 32q99 0 180 -21.5t119 -56.5q40 -37 57 -85.5t17 -170.5v-479q0 -110 27.5 -154t101.5 -68v-18z" />
    <glyph glyph-name="ccedilla" unicode="&#xe7;" horiz-adv-x="1014" 
d="M985 297l21 -6l-99 -309q-26 3 -41 4.5t-22 1.5q-15 0 -83.5 -8.5t-123.5 -8.5q-261 0 -424.5 162t-163.5 412q0 225 128.5 364.5t338.5 139.5q32 0 107.5 -8.5t119.5 -8.5q23 0 47.5 5t55.5 16l63 -332h-18q-55 105 -130.5 159t-166.5 54q-141 0 -223 -103t-82 -280
q0 -213 98.5 -335t269.5 -122q106 0 189 51.5t139 151.5zM307 -379l39 90q59 -37 119.5 -57.5t112.5 -20.5q56 0 83 22t27 69q0 43 -27.5 64.5t-82.5 21.5q-4 0 -16.5 -1.5t-43.5 -4.5v196h66v-115q16 2 31.5 3t37.5 1q81 0 130 -45.5t49 -119.5q0 -84 -59.5 -131.5
t-166.5 -47.5q-58 0 -128.5 18t-170.5 58z" />
    <glyph glyph-name="eacute" unicode="&#xe9;" horiz-adv-x="1147" 
d="M844 731q-41 109 -105.5 162t-156.5 53q-126 0 -204.5 -95.5t-78.5 -252.5v-20zM1090 352l18 -6l-105 -358q-9 1 -18.5 1.5t-30.5 0.5q-43 0 -132.5 -10.5t-137.5 -10.5q-274 0 -450.5 159t-176.5 402q0 223 156.5 373t390.5 150q183 0 306 -90t180 -265l-781 -221
q32 -184 139.5 -282.5t276.5 -98.5q127 0 216.5 63t148.5 193zM397 1163l276 299q27 30 55 46t52 16q31 0 53.5 -23t22.5 -55q0 -28 -18 -49.5t-66 -50.5l-301 -183h-74z" />
    <glyph glyph-name="egrave" unicode="&#xe8;" horiz-adv-x="1147" 
d="M844 731q-41 109 -105.5 162t-156.5 53q-126 0 -204.5 -95.5t-78.5 -252.5v-20zM1090 352l18 -6l-105 -358q-9 1 -18.5 1.5t-30.5 0.5q-43 0 -132.5 -10.5t-137.5 -10.5q-274 0 -450.5 159t-176.5 402q0 223 156.5 373t390.5 150q183 0 306 -90t180 -265l-781 -221
q32 -184 139.5 -282.5t276.5 -98.5q127 0 216.5 63t148.5 193zM749 1163h-74l-301 183q-48 29 -66 50.5t-18 49.5q0 32 22.5 55t53.5 23q25 0 53 -15.5t54 -44.5z" />
    <glyph glyph-name="ecircumflex" unicode="&#xea;" horiz-adv-x="1147" 
d="M844 731q-41 109 -105.5 162t-156.5 53q-126 0 -204.5 -95.5t-78.5 -252.5v-20zM1090 352l18 -6l-105 -358q-9 1 -18.5 1.5t-30.5 0.5q-43 0 -132.5 -10.5t-137.5 -10.5q-274 0 -450.5 159t-176.5 402q0 223 156.5 373t390.5 150q183 0 306 -90t180 -265l-781 -221
q32 -184 139.5 -282.5t276.5 -98.5q127 0 216.5 63t148.5 193zM278 1163l227 348h134l229 -348h-74l-221 195l-221 -195h-74z" />
    <glyph glyph-name="edieresis" unicode="&#xeb;" horiz-adv-x="1147" 
d="M844 731q-41 109 -105.5 162t-156.5 53q-126 0 -204.5 -95.5t-78.5 -252.5v-20zM1090 352l18 -6l-105 -358q-9 1 -18.5 1.5t-30.5 0.5q-43 0 -132.5 -10.5t-137.5 -10.5q-274 0 -450.5 159t-176.5 402q0 223 156.5 373t390.5 150q183 0 306 -90t180 -265l-781 -221
q32 -184 139.5 -282.5t276.5 -98.5q127 0 216.5 63t148.5 193zM651 1325q0 45 34.5 79t80.5 34q45 0 77.5 -33.5t32.5 -79.5q0 -49 -31.5 -81t-78.5 -32q-49 0 -82 33t-33 80zM268 1325q0 45 33.5 79t78.5 34q47 0 80 -33.5t33 -79.5q0 -48 -32 -80.5t-81 -32.5
q-48 0 -80 32.5t-32 80.5z" />
    <glyph glyph-name="iacute" unicode="&#xed;" horiz-adv-x="555" 
d="M72 0v18q56 0 80 37t24 125v600q0 87 -24 123.5t-80 36.5v21l317 63v-793q0 -117 25.5 -160.5t91.5 -52.5v-18h-434zM103 1163l276 299q27 30 55 46t52 16q31 0 53.5 -23t22.5 -55q0 -28 -18 -49.5t-66 -50.5l-301 -183h-74z" />
    <glyph glyph-name="igrave" unicode="&#xec;" horiz-adv-x="555" 
d="M72 0v18q56 0 80 37t24 125v600q0 87 -24 123.5t-80 36.5v21l317 63v-793q0 -117 25.5 -160.5t91.5 -52.5v-18h-434zM455 1163h-74l-301 183q-48 29 -66 50.5t-18 49.5q0 32 22.5 55t53.5 23q25 0 53 -15.5t54 -44.5z" />
    <glyph glyph-name="icircumflex" unicode="&#xee;" horiz-adv-x="555" 
d="M72 0v18q56 0 80 37t24 125v600q0 87 -24 123.5t-80 36.5v21l317 63v-793q0 -117 25.5 -160.5t91.5 -52.5v-18h-434zM-16 1163l227 348h134l229 -348h-74l-221 195l-221 -195h-74z" />
    <glyph glyph-name="idieresis" unicode="&#xef;" horiz-adv-x="555" 
d="M72 0v18q56 0 80 37t24 125v600q0 87 -24 123.5t-80 36.5v21l317 63v-793q0 -117 25.5 -160.5t91.5 -52.5v-18h-434zM357 1325q0 45 34.5 79t80.5 34q45 0 77.5 -33.5t32.5 -79.5q0 -49 -31.5 -81t-78.5 -32q-49 0 -82 33t-33 80zM-26 1325q0 45 33.5 79t78.5 34
q47 0 80 -33.5t33 -79.5q0 -48 -32 -80.5t-81 -32.5q-48 0 -80 32.5t-32 80.5z" />
    <glyph glyph-name="ntilde" unicode="&#xf1;" 
d="M61 0v18q57 0 81 37t24 125v600q0 95 -27.5 144t-81.5 49h-4l-2 22l275 29q22 -34 35 -85t18 -123q102 110 211 166t223 56q143 0 202.5 -78.5t59.5 -283.5v-416q0 -143 25.5 -184t97.5 -58v-18h-453v18q66 6 91.5 47t25.5 160v439q0 141 -36.5 191t-129.5 50
q-59 0 -122 -30.5t-113 -83.5q-44 -47 -63 -111t-19 -186v-263q0 -117 25.5 -160.5t91.5 -52.5v-18h-435zM899 1481q-22 -113 -71.5 -171.5t-123.5 -58.5q-11 0 -23.5 1.5t-28.5 5.5l-106 26q-17 4 -30.5 6t-22.5 2q-42 0 -64.5 -19.5t-37.5 -70.5h-58q22 115 72 174.5
t125 59.5q9 0 24.5 -2.5t39.5 -8.5l108 -26q12 -3 24.5 -4.5t26.5 -1.5q34 0 56 21.5t32 66.5h58z" />
    <glyph glyph-name="oacute" unicode="&#xf3;" 
d="M57 512q0 230 160 385.5t399 155.5q240 0 400 -155.5t160 -385.5q0 -231 -159.5 -386t-400.5 -155q-239 0 -399 155.5t-160 385.5zM606 956q-144 0 -228.5 -112.5t-84.5 -308.5q0 -217 90 -340t246 -123q144 0 227.5 113t83.5 313q0 212 -90.5 335t-243.5 123zM440 1163
l276 299q27 30 55 46t52 16q31 0 53.5 -23t22.5 -55q0 -28 -18 -49.5t-66 -50.5l-301 -183h-74z" />
    <glyph glyph-name="ograve" unicode="&#xf2;" 
d="M57 512q0 230 160 385.5t399 155.5q240 0 400 -155.5t160 -385.5q0 -231 -159.5 -386t-400.5 -155q-239 0 -399 155.5t-160 385.5zM606 956q-144 0 -228.5 -112.5t-84.5 -308.5q0 -217 90 -340t246 -123q144 0 227.5 113t83.5 313q0 212 -90.5 335t-243.5 123zM792 1163
h-74l-301 183q-48 29 -66 50.5t-18 49.5q0 32 22.5 55t53.5 23q25 0 53 -15.5t54 -44.5z" />
    <glyph glyph-name="ocircumflex" unicode="&#xf4;" 
d="M57 512q0 230 160 385.5t399 155.5q240 0 400 -155.5t160 -385.5q0 -231 -159.5 -386t-400.5 -155q-239 0 -399 155.5t-160 385.5zM606 956q-144 0 -228.5 -112.5t-84.5 -308.5q0 -217 90 -340t246 -123q144 0 227.5 113t83.5 313q0 212 -90.5 335t-243.5 123zM321 1163
l227 348h134l229 -348h-74l-221 195l-221 -195h-74z" />
    <glyph glyph-name="odieresis" unicode="&#xf6;" 
d="M57 512q0 230 160 385.5t399 155.5q240 0 400 -155.5t160 -385.5q0 -231 -159.5 -386t-400.5 -155q-239 0 -399 155.5t-160 385.5zM606 956q-144 0 -228.5 -112.5t-84.5 -308.5q0 -217 90 -340t246 -123q144 0 227.5 113t83.5 313q0 212 -90.5 335t-243.5 123zM694 1325
q0 45 34.5 79t80.5 34q45 0 77.5 -33.5t32.5 -79.5q0 -49 -31.5 -81t-78.5 -32q-49 0 -82 33t-33 80zM311 1325q0 45 33.5 79t78.5 34q47 0 80 -33.5t33 -79.5q0 -48 -32 -80.5t-81 -32.5q-48 0 -80 32.5t-32 80.5z" />
    <glyph glyph-name="otilde" unicode="&#xf5;" 
d="M57 512q0 230 160 385.5t399 155.5q240 0 400 -155.5t160 -385.5q0 -231 -159.5 -386t-400.5 -155q-239 0 -399 155.5t-160 385.5zM606 956q-144 0 -228.5 -112.5t-84.5 -308.5q0 -217 90 -340t246 -123q144 0 227.5 113t83.5 313q0 212 -90.5 335t-243.5 123zM899 1481
q-22 -113 -71.5 -171.5t-123.5 -58.5q-11 0 -23.5 1.5t-28.5 5.5l-106 26q-17 4 -30.5 6t-22.5 2q-42 0 -64.5 -19.5t-37.5 -70.5h-58q22 115 72 174.5t125 59.5q9 0 24.5 -2.5t39.5 -8.5l108 -26q12 -3 24.5 -4.5t26.5 -1.5q34 0 56 21.5t32 66.5h58z" />
    <glyph glyph-name="uacute" unicode="&#xfa;" 
d="M1075 215q0 -93 27 -141.5t78 -48.5h10v-25h-297q-14 39 -21.5 86t-9.5 108q-101 -110 -210.5 -166.5t-223.5 -56.5q-143 0 -202.5 76.5t-59.5 286.5v411q0 117 -23 155.5t-81 39.5l-1 21l318 63v-676q0 -140 37.5 -191t130.5 -51q58 0 120 30.5t113 84.5q44 48 63 106
t19 191v227q0 115 -22 154.5t-82 40.5v21l317 63v-809zM440 1163l276 299q27 30 55 46t52 16q31 0 53.5 -23t22.5 -55q0 -28 -18 -49.5t-66 -50.5l-301 -183h-74z" />
    <glyph glyph-name="ugrave" unicode="&#xf9;" 
d="M1075 215q0 -93 27 -141.5t78 -48.5h10v-25h-297q-14 39 -21.5 86t-9.5 108q-101 -110 -210.5 -166.5t-223.5 -56.5q-143 0 -202.5 76.5t-59.5 286.5v411q0 117 -23 155.5t-81 39.5l-1 21l318 63v-676q0 -140 37.5 -191t130.5 -51q58 0 120 30.5t113 84.5q44 48 63 106
t19 191v227q0 115 -22 154.5t-82 40.5v21l317 63v-809zM792 1163h-74l-301 183q-48 29 -66 50.5t-18 49.5q0 32 22.5 55t53.5 23q25 0 53 -15.5t54 -44.5z" />
    <glyph glyph-name="ucircumflex" unicode="&#xfb;" 
d="M1075 215q0 -93 27 -141.5t78 -48.5h10v-25h-297q-14 39 -21.5 86t-9.5 108q-101 -110 -210.5 -166.5t-223.5 -56.5q-143 0 -202.5 76.5t-59.5 286.5v411q0 117 -23 155.5t-81 39.5l-1 21l318 63v-676q0 -140 37.5 -191t130.5 -51q58 0 120 30.5t113 84.5q44 48 63 106
t19 191v227q0 115 -22 154.5t-82 40.5v21l317 63v-809zM321 1163l227 348h134l229 -348h-74l-221 195l-221 -195h-74z" />
    <glyph glyph-name="udieresis" unicode="&#xfc;" 
d="M1075 215q0 -93 27 -141.5t78 -48.5h10v-25h-297q-14 39 -21.5 86t-9.5 108q-101 -110 -210.5 -166.5t-223.5 -56.5q-143 0 -202.5 76.5t-59.5 286.5v411q0 117 -23 155.5t-81 39.5l-1 21l318 63v-676q0 -140 37.5 -191t130.5 -51q58 0 120 30.5t113 84.5q44 48 63 106
t19 191v227q0 115 -22 154.5t-82 40.5v21l317 63v-809zM694 1325q0 45 34.5 79t80.5 34q45 0 77.5 -33.5t32.5 -79.5q0 -49 -31.5 -81t-78.5 -32q-49 0 -82 33t-33 80zM311 1325q0 45 33.5 79t78.5 34q47 0 80 -33.5t33 -79.5q0 -48 -32 -80.5t-81 -32.5q-48 0 -80 32.5
t-32 80.5z" />
    <glyph glyph-name="dagger" unicode="&#x2020;" horiz-adv-x="1024" 
d="M602 -137q0 -38 11.5 -60t37.5 -36v-19h-278v19q26 14 37.5 36t11.5 60v880h-236q-37 0 -59 -11t-37 -38h-18v246h18q15 -26 37 -37.5t59 -11.5h236v360q0 37 -11.5 58.5t-37.5 36.5v20h278v-20q-26 -15 -37.5 -36.5t-11.5 -58.5v-360h236q37 0 59 11.5t37 37.5h18v-246
h-18q-15 27 -37 38t-59 11h-236v-880z" />
    <glyph glyph-name="degree" unicode="&#xb0;" horiz-adv-x="674" 
d="M338 1362q-81 0 -138 -56t-57 -137t57 -138.5t138 -57.5t136.5 57.5t55.5 138.5t-55.5 137t-136.5 56zM338 1456q118 0 202.5 -84.5t84.5 -204.5q0 -119 -84 -202.5t-205 -83.5t-204 83t-83 203t85 204.5t204 84.5z" />
    <glyph glyph-name="cent" unicode="&#xa2;" 
d="M580 348v713q-113 -40 -168.5 -128t-55.5 -226q0 -124 58.5 -218t165.5 -141zM530 0v18q29 16 40.5 36.5t11.5 58.5v100q-199 41 -315.5 180t-116.5 334q0 199 117 321.5t315 129.5v75q0 37 -11 56t-41 37v20h238v-20q-30 -17 -41.5 -37t-11.5 -56v-83q24 -5 70.5 -15
t60.5 -10q21 0 44 4.5t54 15.5l35 -291h-16q-46 83 -104.5 128t-143.5 65v-748h14q96 0 169.5 40.5t145.5 134.5h23l-72 -299q-32 15 -51.5 20.5t-38.5 5.5q-17 0 -72 -6t-92 -6h-26v-96q0 -37 11.5 -57.5t41.5 -37.5v-18h-238z" />
    <glyph glyph-name="sterling" unicode="&#xa3;" 
d="M512 197q-51 33 -100 49t-101 16q-58 0 -94.5 -24.5t-36.5 -63.5q0 -46 36 -70t103 -24q59 0 107.5 29.5t85.5 87.5zM1036 -29h-20q-81 0 -166 32t-195 103q-85 -74 -159 -104.5t-166 -30.5q-146 0 -232 59t-86 156q0 80 74.5 137.5t179.5 57.5q59 0 128 -19.5t147 -57.5
q1 9 1.5 20t0.5 32q0 143 -69.5 228.5t-184.5 85.5q-61 0 -111.5 -29.5t-85.5 -85.5l-24 2l110 244q19 -17 27 -22t14 -5q12 0 36 3t36 3q11 0 43 -6q8 -1 12 -2q-28 55 -41.5 106.5t-13.5 104.5q0 182 128.5 298t334.5 116q159 0 258.5 -86.5t99.5 -225.5v-14l-246 -147
l-24 10q44 38 66 82t22 96q0 84 -57 137.5t-146 53.5q-102 0 -167.5 -69t-65.5 -175q0 -138 61 -217.5t168 -79.5q94 0 170 36t125 103l18 -6l-102 -254q-18 12 -33.5 17.5t-38.5 5.5q-17 0 -51.5 -2.5t-50.5 -2.5q-30 0 -58 1.5t-57 4.5q47 -78 69.5 -148t22.5 -138
q0 -36 -7.5 -75t-24.5 -87q60 -29 106 -43t82 -14q81 0 143 53.5t133 189.5l21 -8z" />
    <glyph glyph-name="section" unicode="&#xa7;" horiz-adv-x="1024" 
d="M315 815q-50 -35 -75 -74t-25 -84q0 -57 41 -100.5t154 -99.5l313 -156q51 36 75.5 74t24.5 82q0 56 -41 99.5t-155 100.5zM172 -243l-18 302h18q42 -108 132 -171.5t200 -63.5q91 0 152 48t61 116q0 43 -28 79.5t-83 63.5l-319 164q-114 58 -169 127t-55 156
q0 75 42.5 138t146.5 138q-61 52 -89 106.5t-28 122.5q0 133 101.5 222.5t255.5 89.5q67 0 161.5 -22.5t120.5 -22.5q14 0 34 3t44 9l18 -305h-18q-37 109 -128.5 175t-203.5 66q-91 0 -152 -48t-61 -117q0 -46 28 -83.5t83 -64.5l319 -162q114 -57 169 -126.5t55 -155.5
q0 -74 -42 -137t-147 -142q61 -51 89 -106t28 -121q0 -135 -105 -223t-268 -88q-63 0 -152.5 21.5t-113.5 21.5q-17 0 -37 -3t-41 -7z" />
    <glyph glyph-name="bullet" unicode="&#x2022;" horiz-adv-x="1208" 
d="M307 762q0 123 87 209t210 86q122 0 208.5 -86.5t86.5 -208.5t-87.5 -209.5t-209.5 -87.5q-123 0 -209 87t-86 210z" />
    <glyph glyph-name="paragraph" unicode="&#xb6;" horiz-adv-x="1024" 
d="M958 1479v-86h-120v-1393h-111v1393h-176v-1393h-113v782q-170 8 -271 102.5t-101 245.5q0 157 107.5 253t285.5 96h499z" />
    <glyph glyph-name="germandbls" unicode="&#xdf;" horiz-adv-x="1241" 
d="M-240 -193l29 150l18 -8q13 -35 44 -51.5t86 -16.5q114 0 175.5 89t61.5 253v533q-13 1 -36.5 2.5t-28.5 1.5q-42 0 -65.5 -11t-39.5 -36l-20 6l69 168q15 -11 29.5 -16t30.5 -5h67v99q0 216 130.5 348.5t342.5 132.5q161 0 252.5 -71t91.5 -195q0 -90 -48.5 -156
t-166.5 -133q212 -81 310 -185.5t98 -248.5q0 -212 -149.5 -349t-387.5 -137q-69 0 -131.5 12t-124.5 37l105 220l22 -9q-1 -4 -1.5 -9.5t-0.5 -16.5q0 -61 42.5 -92t125.5 -31q126 0 211.5 83t85.5 206q0 99 -60 175.5t-188 137.5q-29 14 -81 37q-152 67 -152 125
q0 34 25.5 58.5t123.5 66.5q85 36 123.5 86t38.5 123t-43.5 117t-116.5 44q-64 0 -120 -32.5t-93 -91.5q-28 -47 -40.5 -106.5t-12.5 -174.5v-70v-495q0 -326 -107 -461t-358 -135q-39 0 -79.5 8t-86.5 24z" />
    <glyph glyph-name="registered" unicode="&#xae;" horiz-adv-x="1683" 
d="M738 721q13 -1 28 -1.5t35 -0.5q105 0 163 45t58 127q0 72 -50 116t-134 44q-51 0 -76 -17.5t-25 -52.5zM467 1094h397q144 0 231 -54t87 -141q0 -83 -66 -131.5t-219 -75.5q95 -28 145 -76.5t70 -130.5q6 -23 11 -65q12 -88 57 -88q31 0 47 33.5t16 97.5h45v-19
q0 -84 -41 -129t-119 -45q-49 0 -84 16t-51 46q-20 37 -22 110t-8 97q-19 71 -66.5 105t-130.5 34h-29v-246q0 -51 25.5 -72t93.5 -27v-44h-389v44q69 4 95 25.5t26 73.5v516q0 53 -26 74.5t-95 26.5v45zM844 1305q-123 0 -238 -49t-203 -138q-88 -90 -134 -202.5
t-46 -237.5q0 -127 46.5 -239t136.5 -201q89 -90 199.5 -136.5t236.5 -46.5q125 0 237 47t199 136q88 90 135 203t47 237q0 125 -47.5 242t-132.5 202q-86 86 -201 134.5t-235 48.5zM844 1391q140 0 273 -56t233 -157q97 -99 149.5 -230.5t52.5 -275.5q0 -139 -56 -270
t-161 -234q-100 -99 -228 -150t-276 -51q-134 0 -261.5 54.5t-229.5 154.5q-102 101 -155.5 229t-53.5 273q0 142 53 270.5t154 231.5q100 101 231.5 156t274.5 55z" />
    <glyph glyph-name="copyright" unicode="&#xa9;" horiz-adv-x="1683" 
d="M1122 1098h37l2 -316h-43q-32 135 -103 204t-177 69q-119 0 -179.5 -93.5t-60.5 -277.5q0 -187 66.5 -284t193.5 -97q84 0 153.5 44t127.5 132l39 -26q-61 -105 -148 -158t-199 -53q-173 0 -292 124t-119 304q0 183 118.5 307.5t290.5 124.5q75 0 149.5 -33t80.5 -33
q27 0 42 14.5t21 47.5zM844 1305q-123 0 -238 -49t-203 -138q-88 -90 -134 -202.5t-46 -237.5q0 -127 46.5 -239t136.5 -201q91 -90 201.5 -136.5t234.5 -46.5q126 0 237 46.5t199 136.5q89 90 136.5 204t47.5 236q0 123 -48 241t-134 203q-86 86 -201 134.5t-235 48.5z
M844 1391q138 0 269 -54.5t230 -152.5q100 -99 154.5 -232t54.5 -274q0 -140 -53.5 -269.5t-155.5 -232.5q-99 -101 -228 -155t-273 -54q-142 0 -270 53.5t-232 155.5q-103 102 -156 229t-53 273q0 141 53.5 270t155.5 232q100 101 230.5 156t273.5 55z" />
    <glyph glyph-name="trademark" unicode="&#x2122;" horiz-adv-x="1683" 
d="M780 1442h191l137 -391l143 391h181v-25l-30 -2q-21 -2 -31.5 -15t-10.5 -38v-375q0 -25 10.5 -38t31.5 -15l30 -2v-29h-240v29l31 2q21 2 32 15.5t11 37.5v387l-172 -473h-21l-172 475v-389q0 -24 11 -37.5t32 -15.5l33 -2v-29h-197v29l34 2q20 2 31 15.5t11 37.5v371
q0 24 -11 37.5t-31 15.5l-34 4v27zM250 1442h444l11 -182h-27q-8 78 -40.5 114.5t-94.5 36.5h-17v-424q0 -24 10.5 -37.5t30.5 -15.5l33 -2v-29h-254v29l31 2q21 2 32 15.5t11 37.5v424h-17q-64 0 -96.5 -36t-40.5 -115h-26z" />
    <glyph glyph-name="acute" unicode="&#xb4;" horiz-adv-x="1024" 
d="M336 1163l276 299q27 30 55 46t52 16q31 0 53.5 -23t22.5 -55q0 -28 -18 -49.5t-66 -50.5l-301 -183h-74z" />
    <glyph glyph-name="dieresis" unicode="&#xa8;" horiz-adv-x="1024" 
d="M590 1325q0 45 34.5 79t80.5 34q45 0 77.5 -33.5t32.5 -79.5q0 -49 -31.5 -81t-78.5 -32q-49 0 -82 33t-33 80zM207 1325q0 45 33.5 79t78.5 34q47 0 80 -33.5t33 -79.5q0 -48 -32 -80.5t-81 -32.5q-48 0 -80 32.5t-32 80.5z" />
    <glyph glyph-name="notequal" unicode="&#x2260;" horiz-adv-x="1706" 
d="M1208 1194l105 -82l-187 -235h326v-136h-416l-205 -262h621v-135h-709l-249 -317l-105 84l184 233h-319v135h408l204 262h-612v136h702z" />
    <glyph glyph-name="AE" unicode="&#xc6;" horiz-adv-x="1892" 
d="M594 1366h924q45 0 76 10t48 31l105 -446h-29q-60 141 -193 223t-304 82q-98 0 -131 -28t-33 -134v-205l10 1q332 16 338 177h29l86 -495h-29q-31 110 -108.5 167.5t-194.5 57.5q-29 0 -62.5 -2t-68.5 -6v-508q0 -118 44.5 -157.5t158.5 -39.5q189 0 332 103t245 313h29
l-170 -533q-21 12 -45 17.5t-74 5.5h-879l1 29q71 5 98.5 48t27.5 189v477q-288 -98 -459 -263.5t-171 -342.5q0 -51 23 -77t73 -32v-28h-451v29q134 20 290 299q39 69 60 106l412 707q21 35 32 69.5t11 61.5q0 28 -13 44.5t-38 21.5v28zM465 670q77 59 166 103.5t194 76.5
v450z" />
    <glyph glyph-name="Oslash" unicode="&#xd8;" horiz-adv-x="1575" 
d="M1047 1151q-70 66 -144 98.5t-155 32.5q-196 0 -317.5 -149.5t-121.5 -395.5q0 -96 27 -188t86 -195zM1161 1298l162 209h168l-223 -286q118 -107 178.5 -242.5t60.5 -296.5q0 -304 -207.5 -507.5t-513.5 -203.5q-107 0 -205 29t-196 90l-182 -231h-168l241 313
q-106 104 -158 230t-52 280q0 304 208 508.5t512 204.5q92 0 185 -24t190 -73zM506 244q74 -79 154 -117.5t169 -38.5q191 0 314 146t123 374q0 111 -33 220.5t-98 220.5z" />
    <glyph glyph-name="infinity" unicode="&#x221e;" horiz-adv-x="1706" 
d="M915 559q50 -89 116.5 -133.5t150.5 -44.5q101 0 165 67.5t64 172.5q0 101 -59 168t-148 67q-81 0 -146.5 -66.5t-142.5 -230.5zM793 666q-49 88 -115.5 132t-151.5 44q-101 0 -165 -66.5t-64 -171.5q0 -101 59 -168t148 -67q81 0 146.5 66t142.5 231zM864 483
q-71 -136 -148.5 -199t-172.5 -63q-135 0 -228.5 112t-93.5 277q0 175 83.5 283t217.5 108q95 0 170 -61.5t150 -202.5q68 138 147 203.5t176 65.5q133 0 227.5 -113t94.5 -279q0 -174 -83.5 -281.5t-217.5 -107.5q-95 0 -168.5 58.5t-153.5 199.5z" />
    <glyph glyph-name="plusminus" unicode="&#xb1;" horiz-adv-x="1706" 
d="M254 170h1198v-141h-1198v141zM782 1192h142v-340h528v-139h-528v-340h-142v340h-528v139h528v340z" />
    <glyph glyph-name="lessequal" unicode="&#x2264;" horiz-adv-x="1706" 
d="M262 162h1184v-139h-1184v139zM1444 1206v-147l-936 -309l936 -306v-149l-1182 395v121z" />
    <glyph glyph-name="greaterequal" unicode="&#x2265;" horiz-adv-x="1706" 
d="M262 162h1184v-139h-1184v139zM262 1206l1184 -395v-121l-1184 -395v149l938 306l-938 309v147z" />
    <glyph glyph-name="yen" unicode="&#xa5;" horiz-adv-x="1298" 
d="M741 266q0 -146 27.5 -189t99.5 -48v-29h-465l1 29q73 5 100.5 49t27.5 188v332h-471v90h443l-82 131h-361v90h308l-172 287q-45 76 -82 104t-90 37v29h491v-28q-45 -2 -70.5 -25t-25.5 -62q0 -19 12 -50t33 -66l225 -367l232 367q21 34 31 63.5t10 58.5q0 36 -22 56
t-64 24v29h405v-29q-61 -22 -108 -63.5t-117 -149.5l-142 -215h330v-90h-391l-86 -131h477v-90h-504v-332z" />
    <glyph glyph-name="mu" unicode="&#xb5;" horiz-adv-x="1169" 
d="M166 195q-33 -143 -64 -355q-37 -260 -116 -260q-43 0 -65.5 24.5t-22.5 69.5q0 44 70 277t110 422l108 512h168l-100 -475q-9 -40 -13.5 -74.5t-4.5 -59.5q0 -70 41.5 -108.5t119.5 -38.5q97 0 154 54.5t82 172.5l112 529h173l-115 -532q-9 -43 -14 -75.5t-5 -52.5
q0 -48 26.5 -74t76.5 -26q44 0 81 25t58 69q13 27 27 73q17 56 39 56q9 0 15.5 -8t6.5 -21q0 -34 -13.5 -88t-35.5 -100q-39 -78 -92.5 -117t-122.5 -39q-81 0 -125.5 55t-44.5 154v13q-52 -115 -123 -168.5t-172 -53.5q-95 0 -151 56t-68 164z" />
    <glyph glyph-name="partialdiff" unicode="&#x2202;" horiz-adv-x="1059" 
d="M756 621q15 87 22.5 168.5t7.5 156.5q0 129 -36.5 194.5t-108.5 65.5q-55 0 -127 -58t-108 -58t-60 22t-24 53q0 62 72 111t173 49q180 0 287 -155t107 -418q0 -335 -144.5 -556t-357.5 -221q-152 0 -253.5 108t-101.5 271q0 198 110.5 326.5t272.5 128.5
q101 0 166 -45.5t103 -142.5zM707 494q0 116 -43.5 178.5t-122.5 62.5q-109 0 -179.5 -129t-70.5 -336q0 -116 43 -177.5t123 -61.5q109 0 179.5 130t70.5 333z" />
    <glyph glyph-name="summation" unicode="&#x2211;" horiz-adv-x="1462" 
d="M16 1473h1162l110 -365h-78l-73 227q-11 34 -41.5 49t-98.5 15h-690l809 -832v-37l-825 -735h887q61 0 79 13t29 51l72 229h78l-148 -481h-1272v41l920 815l-920 956v54z" />
    <glyph glyph-name="product" unicode="&#x220f;" horiz-adv-x="1630" 
d="M53 1473h1522v-74h-191v-1718h191v-74h-596v74h192v1718h-714v-1718h192v-74h-596v74h191v1718h-191v74z" />
    <glyph glyph-name="pi" unicode="&#x3c0;" horiz-adv-x="1389" 
d="M1370 885l-43 -199h-340q-33 -137 -37 -401q-1 -58 -2 -87q-3 -125 -32.5 -183t-90.5 -58q-42 0 -64 28t-22 83q0 58 77 259t114 359h-387q-35 -142 -40 -414q-1 -49 -1 -73q-4 -127 -33 -184.5t-90 -57.5q-42 0 -63 28t-21 83q0 59 76 260t112 358h-188
q-91 0 -135.5 -41.5t-67.5 -152.5h-57q40 218 124 305.5t251 87.5h960z" />
    <glyph glyph-name="integral" unicode="&#x222b;" horiz-adv-x="1067" 
d="M311 -262q106 0 120 688q2 108 3 165q12 515 107 737t297 222q80 0 130 -42t50 -107q0 -54 -32 -85.5t-87 -31.5q-42 0 -70 19t-40 54q-6 15 -10.5 51t-20.5 36q-107 0 -121 -619q-4 -193 -8 -303q-17 -479 -111.5 -686t-290.5 -207q-79 0 -129.5 41.5t-50.5 106.5
q0 56 34 87.5t95 31.5q33 0 57 -14.5t39 -42.5q10 -18 15 -59.5t24 -41.5z" />
    <glyph glyph-name="ordfeminine" unicode="&#xaa;" horiz-adv-x="846" 
d="M825 649h-219q-17 20 -27.5 47t-15.5 63q-59 -69 -129 -99.5t-170 -30.5q-115 0 -181.5 50t-66.5 136q0 120 130 195.5t417 119.5v62q0 61 -38.5 90t-118.5 29q-109 0 -190.5 -49t-125.5 -142h-14l37 236q18 -7 32.5 -11t22.5 -4q11 0 105 22.5t176 22.5q72 0 133.5 -15
t91.5 -40q30 -26 42.5 -59t12.5 -119v-336q0 -76 20.5 -107t75.5 -48v-13zM563 1067q-183 -33 -279 -93.5t-96 -142.5q0 -52 36.5 -82t99.5 -30q54 0 104.5 22.5t83.5 61.5q27 32 39 77.5t12 125.5v61z" />
    <glyph glyph-name="ordmasculine" unicode="&#xba;" horiz-adv-x="926" 
d="M43 1008q0 161 120 269.5t300 108.5q179 0 299.5 -108.5t120.5 -269.5q0 -162 -119.5 -270.5t-300.5 -108.5q-180 0 -300 108.5t-120 270.5zM455 1319q-109 0 -172.5 -79t-63.5 -216q0 -151 67.5 -237.5t184.5 -86.5q109 0 171.5 78.5t62.5 218.5q0 149 -68 235.5
t-182 86.5z" />
    <glyph glyph-name="Omega" unicode="&#x3a9;" horiz-adv-x="1569" 
d="M1112 231v-26h311l60 184h61l-117 -389h-505q120 216 181.5 435t61.5 427q0 277 -95.5 418t-283.5 141q-189 0 -284.5 -140t-95.5 -419q0 -209 61 -426t182 -436h-506l-116 389h61l59 -184h312v26q-165 183 -237 335t-72 311q0 267 183 443.5t453 176.5t452.5 -177
t182.5 -443q0 -158 -71.5 -309t-237.5 -337z" />
    <glyph glyph-name="ae" unicode="&#xe6;" horiz-adv-x="1835" 
d="M922 918q81 69 172 102t202 33q179 0 298 -88t182 -267l-781 -221q32 -184 139.5 -282.5t276.5 -98.5q128 0 217 63t148 193l18 -6l-104 -358q-21 1 -39 1.5t-33 0.5q-30 0 -113 -9.5t-137 -9.5q-180 0 -308 61t-229 195q-100 -134 -215 -195t-268 -61q-151 0 -238 71.5
t-87 195.5q0 171 172 279t555 173v88q0 85 -51.5 125.5t-157.5 40.5q-146 0 -254.5 -69.5t-167.5 -200.5h-19l50 338q0 -1 2 -1q58 -22 81 -22q17 0 143 32t238 32q125 0 201.5 -34t106.5 -101zM1530 731q-46 112 -108.5 162.5t-153.5 50.5q-127 0 -205 -94.5t-78 -251.5
v-20zM750 600q-244 -48 -372 -134.5t-128 -203.5q0 -73 48.5 -116.5t131.5 -43.5q74 0 141.5 32t110.5 87q36 45 52 105.5t16 171.5v102z" />
    <glyph glyph-name="oslash" unicode="&#xf8;" 
d="M872 997l129 189h140l-170 -252q102 -85 153.5 -191t51.5 -231q0 -231 -159.5 -386t-400.5 -155q-71 0 -136 14t-124 42l-149 -226h-139l190 289q-101 88 -151 192t-50 230q0 230 160 385.5t399 155.5q76 0 139 -14t117 -42zM799 887q-45 35 -90.5 52t-96.5 17
q-152 0 -234.5 -115t-82.5 -329q0 -86 16 -158t47 -127zM434 137q48 -35 93.5 -51t95.5 -16q146 0 231.5 111.5t85.5 305.5q0 101 -15.5 177.5t-45.5 128.5z" />
    <glyph glyph-name="questiondown" unicode="&#xbf;" horiz-adv-x="1118" 
d="M721 1018q31 -41 45 -74.5t14 -66.5q0 -40 -25.5 -79.5t-103.5 -109.5q-44 -40 -128 -107q-208 -165 -208 -292q0 -95 66 -154t174 -59q159 0 262 97.5t103 250.5q0 16 -4 48q0 3 -1 5h13l69 -403h-4q-37 0 -187.5 -47t-273.5 -47q-199 0 -329.5 94.5t-130.5 232.5
q0 101 64.5 178t213.5 152q14 7 41 20q193 97 193 174q0 44 -27 70.5t-84 38.5v18q9 -1 19 -1.5t30 -0.5q55 0 102.5 15t96.5 47zM631 1098q-52 0 -90.5 44t-38.5 105q0 62 37.5 105t91.5 43q52 0 89.5 -42.5t37.5 -105.5q0 -62 -38 -105.5t-89 -43.5z" />
    <glyph glyph-name="exclamdown" unicode="&#xa1;" horiz-adv-x="631" 
d="M461 1026q-24 -91 -35.5 -189t-11.5 -208q0 -236 19.5 -378t64.5 -251h-367q61 135 93 299.5t32 347.5q0 84 -6.5 163t-20.5 159q3 -1 7 -2q46 -11 67 -11q42 0 80.5 17t77.5 53zM319 1098q-51 0 -88.5 44t-37.5 105q0 62 36.5 105t89.5 43t91.5 -43t38.5 -105
q0 -61 -39 -105t-91 -44z" />
    <glyph glyph-name="logicalnot" unicode="&#xac;" horiz-adv-x="1706" 
d="M254 860h1198v-502h-137v363h-1061v139z" />
    <glyph glyph-name="radical" unicode="&#x221a;" horiz-adv-x="1305" 
d="M1116 1661h189v-96h-115l-594 -1606h-66l-319 883l-125 -45l-25 80l283 98l256 -709z" />
    <glyph glyph-name="florin" unicode="&#x192;" 
d="M739 737l-53 -446q-53 -438 -169 -614.5t-339 -176.5q-61 0 -109 9t-92 28l60 242h16q13 -83 48.5 -124.5t95.5 -41.5q93 0 147 97.5t84 324.5l90 702h-121q-4 0 -37 -5q-22 -3 -36 -5l30 127q23 -6 39.5 -9t26.5 -3h108q36 278 142 417.5t282 139.5q45 0 102 -9.5
t128 -27.5l-56 -219l-18 4q-16 75 -48 110t-85 35q-91 0 -143.5 -102t-83.5 -348h122q5 0 50 6q17 3 26 4l-33 -125q-19 5 -35.5 7.5t-29.5 2.5h-109z" />
    <glyph glyph-name="approxequal" unicode="&#x2248;" horiz-adv-x="1706" 
d="M1530 586v-156q-105 -73 -199.5 -107t-189.5 -34t-285 67.5t-293 67.5q-82 0 -171.5 -36t-213.5 -122v156q108 73 204 109t183 36q115 0 305 -68.5t273 -68.5q88 0 177 35.5t210 120.5zM1530 954v-155q-105 -73 -199.5 -107.5t-189.5 -34.5t-285 68t-293 68
q-83 0 -171.5 -36t-213.5 -122v156q106 72 202 107.5t185 35.5q116 0 305.5 -67.5t272.5 -67.5q87 0 175 34.5t212 120.5z" />
    <glyph glyph-name="Delta" unicode="&#x2206;" horiz-adv-x="1350" 
d="M602 1174l-389 -957h768zM666 1497h30l600 -1497h-1243z" />
    <glyph glyph-name="guillemotleft" unicode="&#xab;" horiz-adv-x="1008" 
d="M690 190l-229 322l229 322h189l-248 -322l248 -322h-189zM346 190l-227 322l227 322h191l-248 -322l248 -322h-191z" />
    <glyph glyph-name="guillemotright" unicode="&#xbb;" horiz-adv-x="1008" 
d="M655 190h-190l250 322l-250 322h190l228 -322zM311 190h-188l248 322l-248 322h188l230 -322z" />
    <glyph glyph-name="ellipsis" unicode="&#x2026;" horiz-adv-x="2048" 
d="M336 276q52 0 89.5 -43.5t37.5 -105.5t-37 -104.5t-90 -42.5t-90 42.5t-37 104.5t38 105.5t89 43.5zM1018 276q52 0 89.5 -43.5t37.5 -105.5t-37 -104.5t-90 -42.5t-90 42.5t-37 104.5t38 105.5t89 43.5zM1702 276q52 0 89.5 -43.5t37.5 -105.5t-37 -104.5t-90 -42.5
t-90 42.5t-37 104.5t38 105.5t89 43.5z" />
    <glyph glyph-name="nonbreakingspace" unicode="&#xa0;" 
 />
    <glyph glyph-name="Agrave" unicode="&#xc0;" horiz-adv-x="1229" 
d="M401 713q130 -9 217 -41t156 -94l-207 616zM319 29v-29h-401v29q121 26 200 248l3 8l332 925q6 18 9 32t3 26q0 23 -13 39.5t-42 29.5v29h428v-29q-28 -12 -41 -28.5t-13 -40.5q0 -12 3 -25.5t10 -32.5l327 -977q44 -131 74.5 -165.5t81.5 -39.5v-28h-459v29
q44 16 64 46.5t20 80.5q0 175 -146.5 299.5t-391.5 152.5l-119 -340q-15 -43 -22 -76.5t-7 -58.5q0 -49 24 -74t76 -30zM790 1505h-74l-301 183q-48 29 -66 50.5t-18 49.5q0 32 22.5 55t53.5 23q25 0 53 -15.5t54 -44.5z" />
    <glyph glyph-name="Atilde" unicode="&#xc3;" horiz-adv-x="1229" 
d="M401 713q130 -9 217 -41t156 -94l-207 616zM319 29v-29h-401v29q121 26 200 248l3 8l332 925q6 18 9 32t3 26q0 23 -13 39.5t-42 29.5v29h428v-29q-28 -12 -41 -28.5t-13 -40.5q0 -12 3 -25.5t10 -32.5l327 -977q44 -131 74.5 -165.5t81.5 -39.5v-28h-459v29
q44 16 64 46.5t20 80.5q0 175 -146.5 299.5t-391.5 152.5l-119 -340q-15 -43 -22 -76.5t-7 -58.5q0 -49 24 -74t76 -30zM897 1823q-22 -113 -71.5 -171.5t-123.5 -58.5q-11 0 -23.5 1.5t-28.5 5.5l-106 26q-17 4 -30.5 6t-22.5 2q-42 0 -64.5 -19.5t-37.5 -70.5h-58
q22 115 72 174.5t125 59.5q9 0 24.5 -2.5t39.5 -8.5l108 -26q12 -3 24.5 -4.5t26.5 -1.5q34 0 56 21.5t32 66.5h58z" />
    <glyph glyph-name="Otilde" unicode="&#xd5;" horiz-adv-x="1575" 
d="M311 758q0 -126 41 -249t115 -218q76 -101 169.5 -152t201.5 -51q183 0 305.5 145.5t122.5 368.5q0 278 -156 479t-371 201q-185 0 -306.5 -147t-121.5 -377zM66 682q0 304 208 508.5t512 204.5q305 0 513 -204.5t208 -508.5q0 -303 -207.5 -507t-513.5 -204
q-305 0 -512.5 204t-207.5 507zM1071 1823q-22 -113 -71.5 -171.5t-123.5 -58.5q-11 0 -23.5 1.5t-28.5 5.5l-106 26q-17 4 -30.5 6t-22.5 2q-42 0 -64.5 -19.5t-37.5 -70.5h-58q22 115 72 174.5t125 59.5q9 0 24.5 -2.5t39.5 -8.5l108 -26q12 -3 24.5 -4.5t26.5 -1.5
q34 0 56 21.5t32 66.5h58z" />
    <glyph glyph-name="OE" unicode="&#x152;" horiz-adv-x="2347" 
d="M1278 180q-110 -106 -230.5 -157.5t-261.5 -51.5q-305 0 -512.5 204t-207.5 507t206 508t508 205q141 0 257.5 -53.5t240.5 -176.5v201h690q47 0 78 10t49 31l105 -446h-29q-61 141 -194 223t-304 82q-97 0 -130.5 -28t-33.5 -134v-117h148q120 0 161.5 27.5t53.5 101.5
h29l75 -475l-28 -2q-45 135 -116.5 188.5t-205.5 53.5h-117v-590q0 -119 45 -158t162 -39q186 0 329 103.5t245 312.5h28l-172 -533q-20 12 -44 17.5t-72 5.5h-752v180zM311 758q0 -126 41 -249t115 -218q76 -101 169.5 -152t201.5 -51q184 0 306 146.5t122 375.5
q0 280 -151 475t-367 195q-193 0 -315 -145.5t-122 -376.5z" />
    <glyph glyph-name="oe" unicode="&#x153;" horiz-adv-x="2009" 
d="M1708 731q-45 111 -108.5 162t-155.5 51q-127 0 -205 -94.5t-78 -251.5v-20zM1042 866q86 95 191.5 141t239.5 46q176 0 295.5 -88.5t183.5 -266.5l-781 -221q32 -184 139.5 -282.5t276.5 -98.5q128 0 217 63t148 193l18 -6l-104 -358q-21 1 -39 1.5t-33 0.5
q-28 0 -111.5 -9.5t-138.5 -9.5q-161 0 -280.5 49.5t-206.5 151.5q-95 -105 -199.5 -153t-241.5 -48q-240 0 -399.5 155t-159.5 386q0 230 160 385.5t399 155.5q132 0 237.5 -46.5t188.5 -140.5zM610 956q-148 0 -232.5 -113.5t-84.5 -316.5q0 -214 88 -335t242 -121
q149 0 232 112t83 316q0 215 -87.5 336.5t-240.5 121.5z" />
    <glyph glyph-name="endash" unicode="&#x2013;" horiz-adv-x="1024" 
d="M1024 578v-134h-1024v134h1024z" />
    <glyph glyph-name="emdash" unicode="&#x2014;" horiz-adv-x="2048" 
d="M2048 578v-134h-2048v134h2048z" />
    <glyph glyph-name="quotedblleft" unicode="&#x201c;" horiz-adv-x="782" 
d="M39 1366h199l-7 -49l154 -356h-156zM397 1366h197l-6 -49l153 -356h-155z" />
    <glyph glyph-name="quotedblright" unicode="&#x201d;" horiz-adv-x="782" 
d="M741 1366l-188 -405h-156l152 356l-4 49h196zM385 1366l-188 -405h-158l154 356l-5 49h197z" />
    <glyph glyph-name="quoteleft" unicode="&#x2018;" horiz-adv-x="440" 
d="M47 1366h199l-6 -49l153 -356h-155z" />
    <glyph glyph-name="quoteright" unicode="&#x2019;" horiz-adv-x="440" 
d="M393 1366l-190 -405h-156l154 356l-6 49h198z" />
    <glyph glyph-name="divide" unicode="&#xf7;" horiz-adv-x="1706" 
d="M854 367q51 0 88 -37t37 -88q0 -52 -36.5 -88.5t-88.5 -36.5q-53 0 -89 36t-36 89q0 51 37 88t88 37zM254 680h1198v-139h-1198v139zM854 1106q51 0 88 -37.5t37 -89.5q0 -51 -36.5 -88t-88.5 -37t-88.5 36.5t-36.5 88.5t37 89.5t88 37.5z" />
    <glyph glyph-name="lozenge" unicode="&#x25ca;" horiz-adv-x="1012" 
d="M506 1409l-385 -817l385 -825l385 825zM506 1653l500 -1061l-500 -1069l-500 1069z" />
    <glyph glyph-name="ydieresis" unicode="&#xff;" horiz-adv-x="967" 
d="M-47 1006v18h405v-18q-30 -8 -43.5 -26t-13.5 -50q0 -33 36 -125q6 -15 9 -23l205 -516l199 565q12 34 16 55.5t4 43.5t-16.5 41.5t-48.5 34.5v18h319v-18q-53 -16 -86.5 -55.5t-73.5 -147.5l-342 -934q-62 -171 -145 -247.5t-205 -76.5q-63 0 -114 20t-105 64l135 275
l16 -6q-8 -30 -11 -44t-3 -22q0 -57 32.5 -91t86.5 -34q87 0 139.5 70t52.5 188q0 84 -71 267v1l-224 572q-36 92 -70.5 136t-82.5 65zM561 1325q0 45 34.5 79t80.5 34q45 0 77.5 -33.5t32.5 -79.5q0 -49 -31.5 -81t-78.5 -32q-49 0 -82 33t-33 80zM178 1325q0 45 33.5 79
t78.5 34q47 0 80 -33.5t33 -79.5q0 -48 -32 -80.5t-81 -32.5q-48 0 -80 32.5t-32 80.5z" />
    <glyph glyph-name="Ydieresis" unicode="&#x178;" horiz-adv-x="1118" 
d="M657 266q0 -146 27.5 -189t99.5 -48v-29h-487v28q72 6 99.5 49t27.5 189v371l-336 559q-1 2 -3 5q-73 120 -167 136v29h514v-28q-46 -3 -71 -25.5t-25 -61.5q0 -19 12 -50t33 -66l211 -349l227 349q19 27 29 58.5t10 63.5q0 36 -21 55.5t-65 25.5v28h426v-29
q-61 -22 -108 -63.5t-117 -149.5l-316 -479v-379zM637 1667q0 45 34.5 79t80.5 34q45 0 77.5 -33.5t32.5 -79.5q0 -49 -31.5 -81t-78.5 -32q-49 0 -82 33t-33 80zM254 1667q0 45 33.5 79t78.5 34q47 0 80 -33.5t33 -79.5q0 -48 -32 -80.5t-81 -32.5q-48 0 -80 32.5t-32 80.5
z" />
    <glyph glyph-name="fraction" unicode="&#x2215;" horiz-adv-x="342" 
d="M-334 -29l869 1424h141l-869 -1424h-141z" />
    <glyph glyph-name="currency" unicode="&#xa4;" horiz-adv-x="1241" 
d="M623 1190q-126 0 -215 -89t-89 -214q0 -126 89 -215.5t215 -89.5q125 0 214 89.5t89 215.5q0 125 -89 214t-214 89zM162 1423l205 -204q57 43 120 64.5t134 21.5t134.5 -21.5t121.5 -64.5l204 204l82 -80l-205 -206q41 -55 61.5 -118t20.5 -134q0 -73 -20 -135.5
t-62 -116.5l205 -205l-82 -82l-204 205q-59 -44 -122 -65t-132 -21q-72 0 -135.5 21.5t-120.5 64.5l-205 -205l-82 82l207 205q-41 51 -62.5 116t-21.5 136q0 70 21 133t63 119l-207 206z" />
    <glyph glyph-name="guilsinglleft" unicode="&#x2039;" horiz-adv-x="664" 
d="M346 190l-227 322l227 322h191l-248 -322l248 -322h-191z" />
    <glyph glyph-name="guilsinglright" unicode="&#x203a;" horiz-adv-x="664" 
d="M311 190h-188l248 322l-248 322h188l230 -322z" />
    <glyph glyph-name="fi" unicode="&#xf001;" horiz-adv-x="1190" 
d="M907 1446q55 0 95 -43t40 -100q0 -60 -39.5 -101t-95.5 -41t-94.5 41t-38.5 101t39 101.5t94 41.5zM707 0v18q56 0 80 37t24 125v600q0 87 -24 123.5t-80 36.5v21l317 63v-793q0 -117 25.5 -160.5t91.5 -52.5v-18h-434zM176 901h-131v19q126 33 138 168q3 44 7 69
q21 136 112.5 212.5t234.5 76.5q44 0 91.5 -9t104.5 -28l-57 -217l-19 4v4q0 65 -37 102t-100 37q-72 0 -101.5 -41t-29.5 -163v-136h117q23 0 45 7t45 22l-53 -143q-20 8 -41.5 12t-63.5 4h-49v-670q0 -117 25.5 -160.5t91.5 -52.5v-18h-445v18h7q58 0 83 37t25 125v721z
" />
    <glyph glyph-name="fl" unicode="&#xf002;" horiz-adv-x="1190" 
d="M176 901h-131v19q125 32 140 173q4 41 8 65q18 127 110.5 202.5t233.5 75.5q46 0 94.5 -8.5t101.5 -26.5l-2 -15l293 60v-1215q0 -117 25.5 -160.5t91.5 -52.5v-18h-434v18q56 0 80 37t24 125v1022q0 79 -20.5 116.5t-67.5 43.5l-47 -180l-19 4v4q0 64 -37 101.5
t-100 37.5q-73 0 -102 -41t-29 -162v-127h117q23 0 45 7t45 22l-53 -143q-20 8 -41.5 12t-63.5 4h-49v-670q0 -117 25.5 -160.5t91.5 -52.5v-18h-445v18h7q58 0 83 37t25 125v721z" />
    <glyph glyph-name="daggerdbl" unicode="&#x2021;" horiz-adv-x="1024" 
d="M602 -137q0 -38 11.5 -60t37.5 -36v-19h-278v19q26 14 37.5 36t11.5 60v348h-236q-36 0 -58.5 -12t-37.5 -39h-18v248h18q15 -27 37 -38.5t59 -11.5h236v398h-236q-37 0 -59 -11.5t-37 -37.5h-18v245h18q15 -26 37 -37.5t59 -11.5h236v348q0 37 -11.5 58.5t-37.5 36.5v20
h278v-20q-26 -15 -37.5 -36.5t-11.5 -58.5v-348h236q37 0 59 11.5t37 37.5h18v-245h-18q-15 26 -37 37.5t-59 11.5h-236v-398h236q37 0 59 11.5t37 38.5h18v-248h-18q-15 27 -37.5 39t-58.5 12h-236v-348z" />
    <glyph glyph-name="periodcentered" unicode="&#xb7;" horiz-adv-x="616" 
d="M307 831q53 0 91 -43t38 -104q0 -62 -37.5 -104.5t-91.5 -42.5q-52 0 -89.5 42.5t-37.5 104.5t38 104.5t89 42.5z" />
    <glyph glyph-name="quotesinglbase" unicode="&#x201a;" horiz-adv-x="440" 
d="M393 236l-190 -404h-156l154 354l-6 50h198z" />
    <glyph glyph-name="quotedblbase" unicode="&#x201e;" horiz-adv-x="782" 
d="M741 236l-188 -404h-156l152 354l-4 50h196zM385 236l-188 -404h-158l154 354l-5 50h197z" />
    <glyph glyph-name="perthousand" unicode="&#x2030;" horiz-adv-x="2683" 
d="M2042 375q0 -133 62.5 -221t152.5 -88q85 0 142 73t57 183q0 134 -61.5 221.5t-151.5 87.5q-86 0 -143.5 -73.5t-57.5 -182.5zM1868 348q0 161 110.5 269t272.5 108q161 0 271 -108t110 -269t-109.5 -269t-271.5 -108t-272.5 108.5t-110.5 268.5zM1161 375
q0 -133 62.5 -221t152.5 -88q85 0 141 72.5t56 183.5q0 134 -61 221.5t-152 87.5q-86 0 -142.5 -73.5t-56.5 -182.5zM987 348q0 161 110.5 269t272.5 108q163 0 272 -107.5t109 -269.5q0 -161 -109 -269t-272 -108q-162 0 -272.5 108.5t-110.5 268.5zM492 0v18q34 14 58 37
t38 58l491 1155q5 11 8 21t3 16q0 9 -6 18t-21 23v20h242v-20q-35 -14 -59 -37t-38 -58l-491 -1155q-4 -9 -6 -18t-2 -17q0 -10 5 -19.5t21 -23.5v-18h-243zM223 1044q0 -132 62.5 -220.5t152.5 -88.5q86 0 142.5 72.5t56.5 181.5q0 135 -61.5 223t-151.5 88
q-86 0 -143.5 -73t-57.5 -183zM51 1018q0 161 110 269t271 108q163 0 272 -108t109 -269t-109.5 -270t-271.5 -109q-161 0 -271 109t-110 270z" />
    <glyph glyph-name="Acircumflex" unicode="&#xc2;" horiz-adv-x="1229" 
d="M401 713q130 -9 217 -41t156 -94l-207 616zM319 29v-29h-401v29q121 26 200 248l3 8l332 925q6 18 9 32t3 26q0 23 -13 39.5t-42 29.5v29h428v-29q-28 -12 -41 -28.5t-13 -40.5q0 -12 3 -25.5t10 -32.5l327 -977q44 -131 74.5 -165.5t81.5 -39.5v-28h-459v29
q44 16 64 46.5t20 80.5q0 175 -146.5 299.5t-391.5 152.5l-119 -340q-15 -43 -22 -76.5t-7 -58.5q0 -49 24 -74t76 -30zM319 1505l227 348h134l229 -348h-74l-221 195l-221 -195h-74z" />
    <glyph glyph-name="Ecircumflex" unicode="&#xca;" horiz-adv-x="1270" 
d="M74 0v28q72 6 99.5 49t27.5 189v834q0 146 -27.5 189t-99.5 49v28h819q46 0 76.5 10t48.5 31l106 -446h-28q-63 142 -196 223.5t-304 81.5q-99 0 -130.5 -29.5t-31.5 -128.5v-121h148q119 0 160.5 27t54.5 102h28l76 -475h-29q-49 140 -116.5 190t-204.5 50h-117v-578
q0 -136 45 -172.5t166 -36.5q182 0 326.5 105.5t242.5 310.5h27l-170 -533q-21 12 -45 17.5t-74 5.5h-878zM340 1505l227 348h134l229 -348h-74l-221 195l-221 -195h-74z" />
    <glyph glyph-name="Aacute" unicode="&#xc1;" horiz-adv-x="1229" 
d="M401 713q130 -9 217 -41t156 -94l-207 616zM319 29v-29h-401v29q121 26 200 248l3 8l332 925q6 18 9 32t3 26q0 23 -13 39.5t-42 29.5v29h428v-29q-28 -12 -41 -28.5t-13 -40.5q0 -12 3 -25.5t10 -32.5l327 -977q44 -131 74.5 -165.5t81.5 -39.5v-28h-459v29
q44 16 64 46.5t20 80.5q0 175 -146.5 299.5t-391.5 152.5l-119 -340q-15 -43 -22 -76.5t-7 -58.5q0 -49 24 -74t76 -30zM438 1505l276 299q27 30 55 46t52 16q31 0 53.5 -23t22.5 -55q0 -28 -18 -49.5t-66 -50.5l-301 -183h-74z" />
    <glyph glyph-name="Edieresis" unicode="&#xcb;" horiz-adv-x="1270" 
d="M74 0v28q72 6 99.5 49t27.5 189v834q0 146 -27.5 189t-99.5 49v28h819q46 0 76.5 10t48.5 31l106 -446h-28q-63 142 -196 223.5t-304 81.5q-99 0 -130.5 -29.5t-31.5 -128.5v-121h148q119 0 160.5 27t54.5 102h28l76 -475h-29q-49 140 -116.5 190t-204.5 50h-117v-578
q0 -136 45 -172.5t166 -36.5q182 0 326.5 105.5t242.5 310.5h27l-170 -533q-21 12 -45 17.5t-74 5.5h-878zM713 1667q0 45 34.5 79t80.5 34q45 0 77.5 -33.5t32.5 -79.5q0 -49 -31.5 -81t-78.5 -32q-49 0 -82 33t-33 80zM330 1667q0 45 33.5 79t78.5 34q47 0 80 -33.5
t33 -79.5q0 -48 -32 -80.5t-81 -32.5q-48 0 -80 32.5t-32 80.5z" />
    <glyph glyph-name="Egrave" unicode="&#xc8;" horiz-adv-x="1270" 
d="M74 0v28q72 6 99.5 49t27.5 189v834q0 146 -27.5 189t-99.5 49v28h819q46 0 76.5 10t48.5 31l106 -446h-28q-63 142 -196 223.5t-304 81.5q-99 0 -130.5 -29.5t-31.5 -128.5v-121h148q119 0 160.5 27t54.5 102h28l76 -475h-29q-49 140 -116.5 190t-204.5 50h-117v-578
q0 -136 45 -172.5t166 -36.5q182 0 326.5 105.5t242.5 310.5h27l-170 -533q-21 12 -45 17.5t-74 5.5h-878zM811 1505h-74l-301 183q-48 29 -66 50.5t-18 49.5q0 32 22.5 55t53.5 23q25 0 53 -15.5t54 -44.5z" />
    <glyph glyph-name="Iacute" unicode="&#xcd;" horiz-adv-x="635" 
d="M561 1366v-29q-73 -6 -100 -46t-27 -181v-854q0 -141 27 -181t100 -46v-29h-487v29q73 6 100 46t27 181v854q0 141 -27 181t-100 46v29h487zM141 1505l276 299q27 30 55 46t52 16q31 0 53.5 -23t22.5 -55q0 -28 -18 -49.5t-66 -50.5l-301 -183h-74z" />
    <glyph glyph-name="Icircumflex" unicode="&#xce;" horiz-adv-x="635" 
d="M561 1366v-29q-73 -6 -100 -46t-27 -181v-854q0 -141 27 -181t100 -46v-29h-487v29q73 6 100 46t27 181v854q0 141 -27 181t-100 46v29h487zM22 1505l227 348h134l229 -348h-74l-221 195l-221 -195h-74z" />
    <glyph glyph-name="Idieresis" unicode="&#xcf;" horiz-adv-x="635" 
d="M561 1366v-29q-73 -6 -100 -46t-27 -181v-854q0 -141 27 -181t100 -46v-29h-487v29q73 6 100 46t27 181v854q0 141 -27 181t-100 46v29h487zM395 1667q0 45 34.5 79t80.5 34q45 0 77.5 -33.5t32.5 -79.5q0 -49 -31.5 -81t-78.5 -32q-49 0 -82 33t-33 80zM12 1667
q0 45 33.5 79t78.5 34q47 0 80 -33.5t33 -79.5q0 -48 -32 -80.5t-81 -32.5q-48 0 -80 32.5t-32 80.5z" />
    <glyph glyph-name="Igrave" unicode="&#xcc;" horiz-adv-x="635" 
d="M561 1366v-29q-73 -6 -100 -46t-27 -181v-854q0 -141 27 -181t100 -46v-29h-487v29q73 6 100 46t27 181v854q0 141 -27 181t-100 46v29h487zM493 1505h-74l-301 183q-48 29 -66 50.5t-18 49.5q0 32 22.5 55t53.5 23q25 0 53 -15.5t54 -44.5z" />
    <glyph glyph-name="Oacute" unicode="&#xd3;" horiz-adv-x="1575" 
d="M311 758q0 -126 41 -249t115 -218q76 -101 169.5 -152t201.5 -51q183 0 305.5 145.5t122.5 368.5q0 278 -156 479t-371 201q-185 0 -306.5 -147t-121.5 -377zM66 682q0 304 208 508.5t512 204.5q305 0 513 -204.5t208 -508.5q0 -303 -207.5 -507t-513.5 -204
q-305 0 -512.5 204t-207.5 507zM612 1505l276 299q27 30 55 46t52 16q31 0 53.5 -23t22.5 -55q0 -28 -18 -49.5t-66 -50.5l-301 -183h-74z" />
    <glyph glyph-name="Ocircumflex" unicode="&#xd4;" horiz-adv-x="1575" 
d="M311 758q0 -126 41 -249t115 -218q76 -101 169.5 -152t201.5 -51q183 0 305.5 145.5t122.5 368.5q0 278 -156 479t-371 201q-185 0 -306.5 -147t-121.5 -377zM66 682q0 304 208 508.5t512 204.5q305 0 513 -204.5t208 -508.5q0 -303 -207.5 -507t-513.5 -204
q-305 0 -512.5 204t-207.5 507zM493 1505l227 348h134l229 -348h-74l-221 195l-221 -195h-74z" />
    <glyph glyph-name="apple" unicode="&#xf000;" horiz-adv-x="1618" 
d="M836 1216q-1 6 -1.5 14t-0.5 23q0 124 95 229.5t236 131.5q1 -10 1.5 -23t0.5 -39q0 -131 -103.5 -234.5t-203.5 -103.5h-8q-3 0 -7.5 1t-8.5 1zM1505 403q-114 -247 -205 -342.5t-204 -95.5q-50 0 -131.5 33t-122.5 33q-45 0 -131 -33t-127 -33q-64 0 -128.5 44
t-129.5 132q-102 140 -157.5 295.5t-55.5 300.5q0 219 125 356.5t323 137.5q68 0 155 -34t124 -34q34 0 121.5 35t152.5 35q110 0 198 -40t161 -124q-102 -65 -151.5 -145.5t-49.5 -182.5q0 -113 60 -200t173 -138z" />
    <glyph glyph-name="Ograve" unicode="&#xd2;" horiz-adv-x="1575" 
d="M311 758q0 -126 41 -249t115 -218q76 -101 169.5 -152t201.5 -51q183 0 305.5 145.5t122.5 368.5q0 278 -156 479t-371 201q-185 0 -306.5 -147t-121.5 -377zM66 682q0 304 208 508.5t512 204.5q305 0 513 -204.5t208 -508.5q0 -303 -207.5 -507t-513.5 -204
q-305 0 -512.5 204t-207.5 507zM964 1505h-74l-301 183q-48 29 -66 50.5t-18 49.5q0 32 22.5 55t53.5 23q25 0 53 -15.5t54 -44.5z" />
    <glyph glyph-name="Uacute" unicode="&#xda;" horiz-adv-x="1331" 
d="M55 1337v29h510v-28q-83 -12 -117.5 -67t-44.5 -245l-22 -455q-2 -32 -3 -63t-1 -64q0 -178 85.5 -265t260.5 -87q70 0 135.5 25t108.5 67q41 42 59 106t18 177q0 46 -0.5 70t-1.5 45l-12 288q-13 290 -53 373.5t-139 93.5v29h452v-29q-64 -7 -101.5 -55.5t-37.5 -122.5
q0 -14 2 -52q1 -22 2 -36l16 -339q2 -39 7.5 -128.5t5.5 -134.5q0 -248 -135.5 -373t-403.5 -125q-120 0 -212 28.5t-154 84.5q-69 61 -99 147t-30 234q0 42 0.5 65t1.5 42l18 538q0 9 1 27t1 26q0 96 -26 133t-91 41zM490 1505l276 299q27 30 55 46t52 16q31 0 53.5 -23
t22.5 -55q0 -28 -18 -49.5t-66 -50.5l-301 -183h-74z" />
    <glyph glyph-name="Ucircumflex" unicode="&#xdb;" horiz-adv-x="1331" 
d="M55 1337v29h510v-28q-83 -12 -117.5 -67t-44.5 -245l-22 -455q-2 -32 -3 -63t-1 -64q0 -178 85.5 -265t260.5 -87q70 0 135.5 25t108.5 67q41 42 59 106t18 177q0 46 -0.5 70t-1.5 45l-12 288q-13 290 -53 373.5t-139 93.5v29h452v-29q-64 -7 -101.5 -55.5t-37.5 -122.5
q0 -14 2 -52q1 -22 2 -36l16 -339q2 -39 7.5 -128.5t5.5 -134.5q0 -248 -135.5 -373t-403.5 -125q-120 0 -212 28.5t-154 84.5q-69 61 -99 147t-30 234q0 42 0.5 65t1.5 42l18 538q0 9 1 27t1 26q0 96 -26 133t-91 41zM371 1505l227 348h134l229 -348h-74l-221 195
l-221 -195h-74z" />
    <glyph glyph-name="Ugrave" unicode="&#xd9;" horiz-adv-x="1331" 
d="M55 1337v29h510v-28q-83 -12 -117.5 -67t-44.5 -245l-22 -455q-2 -32 -3 -63t-1 -64q0 -178 85.5 -265t260.5 -87q70 0 135.5 25t108.5 67q41 42 59 106t18 177q0 46 -0.5 70t-1.5 45l-12 288q-13 290 -53 373.5t-139 93.5v29h452v-29q-64 -7 -101.5 -55.5t-37.5 -122.5
q0 -14 2 -52q1 -22 2 -36l16 -339q2 -39 7.5 -128.5t5.5 -134.5q0 -248 -135.5 -373t-403.5 -125q-120 0 -212 28.5t-154 84.5q-69 61 -99 147t-30 234q0 42 0.5 65t1.5 42l18 538q0 9 1 27t1 26q0 96 -26 133t-91 41zM842 1505h-74l-301 183q-48 29 -66 50.5t-18 49.5
q0 32 22.5 55t53.5 23q25 0 53 -15.5t54 -44.5z" />
    <glyph glyph-name="dotlessi" unicode="&#x131;" horiz-adv-x="555" 
d="M72 0v18q56 0 80 37t24 125v600q0 87 -24 123.5t-80 36.5v21l317 63v-793q0 -117 25.5 -160.5t91.5 -52.5v-18h-434z" />
    <glyph glyph-name="circumflex" unicode="&#x2c6;" horiz-adv-x="1024" 
d="M217 1163l227 348h134l229 -348h-74l-221 195l-221 -195h-74z" />
    <glyph glyph-name="tilde" unicode="&#x2dc;" horiz-adv-x="1024" 
d="M795 1481q-22 -113 -71.5 -171.5t-123.5 -58.5q-11 0 -23.5 1.5t-28.5 5.5l-106 26q-17 4 -30.5 6t-22.5 2q-42 0 -64.5 -19.5t-37.5 -70.5h-58q22 115 72 174.5t125 59.5q9 0 24.5 -2.5t39.5 -8.5l108 -26q12 -3 24.5 -4.5t26.5 -1.5q34 0 56 21.5t32 66.5h58z" />
    <glyph glyph-name="macron" unicode="&#xaf;" horiz-adv-x="1024" 
d="M242 1255v140h540v-140h-540z" />
    <glyph glyph-name="breve" unicode="&#x2d8;" horiz-adv-x="1024" 
d="M211 1477h65q18 -71 72.5 -102.5t163.5 -31.5t163 31.5t70 102.5h66q-20 -137 -96.5 -208t-202.5 -71q-127 0 -203.5 70.5t-97.5 208.5z" />
    <glyph glyph-name="dotaccent" unicode="&#x2d9;" horiz-adv-x="1024" 
d="M395 1327q0 48 35 83.5t82 35.5q48 0 83.5 -35.5t35.5 -83.5q0 -51 -34 -85t-85 -34q-50 0 -83.5 34t-33.5 85z" />
    <glyph glyph-name="ring" unicode="&#x2da;" horiz-adv-x="1024" 
d="M371 1393q0 -60 41 -102t100 -42t100 42t41 102q0 59 -41 100t-100 41t-100 -41t-41 -100zM264 1393q0 103 72 175t176 72t176 -72t72 -175q0 -105 -72 -176.5t-176 -71.5t-176 71.5t-72 176.5z" />
    <glyph glyph-name="cedilla" unicode="&#xb8;" horiz-adv-x="1024" 
d="M268 -379l39 90q59 -37 119.5 -57.5t112.5 -20.5q56 0 83 22t27 69q0 43 -27.5 64.5t-82.5 21.5q-4 0 -16.5 -1.5t-43.5 -4.5v196h66v-115q16 2 31.5 3t37.5 1q81 0 130 -45.5t49 -119.5q0 -84 -59.5 -131.5t-166.5 -47.5q-58 0 -128.5 18t-170.5 58z" />
    <glyph glyph-name="hungarumlaut" unicode="&#x2dd;" horiz-adv-x="1024" 
d="M567 1163l174 285q24 38 48 56t51 18q31 0 51 -20.5t20 -53.5q0 -22 -15 -45t-48 -51l-221 -189h-60zM322 1163l133 275q20 44 43.5 65t52.5 21q28 0 50 -21.5t22 -50.5q0 -19 -12 -39.5t-44 -54.5l-184 -195h-61z" />
    <glyph glyph-name="ogonek" unicode="&#x2db;" horiz-adv-x="1024" 
d="M631 35q-83 -63 -128.5 -130.5t-45.5 -125.5q0 -60 23.5 -92.5t66.5 -32.5q37 0 67 17.5t58 54.5l28 -17q-36 -75 -93 -116.5t-126 -41.5q-71 0 -114 42.5t-43 111.5q0 84 64 165t196 165h47z" />
    <glyph glyph-name="caron" unicode="&#x2c7;" horiz-adv-x="1024" 
d="M217 1511h74l221 -194l221 194h74l-229 -348h-134z" />
    <glyph glyph-name="Lslash" unicode="&#x141;" horiz-adv-x="1157" 
d="M1122 510h29l-190 -533q-21 12 -45 17.5t-74 5.5h-758v28q72 6 99.5 49t27.5 189v297l-201 -141v129l201 141v408q0 146 -27.5 189t-99.5 49v28h487v-29q-73 -5 -101 -49t-28 -188v-279l316 219v-131l-316 -217v-383q0 -142 32 -179.5t118 -37.5q166 0 290.5 97.5
t239.5 320.5z" />
    <glyph glyph-name="lslash" unicode="&#x142;" horiz-adv-x="563" 
d="M72 0v18q58 2 81 39.5t23 137.5v434l-166 -119v108l166 117v453q0 108 -22.5 138.5t-81.5 35.5v20l317 64v-590l166 115v-107l-166 -116v-517q0 -117 25.5 -160.5t91.5 -52.5v-18h-434z" />
    <glyph glyph-name="Scaron" unicode="&#x160;" horiz-adv-x="1247" 
d="M166 -4l-111 534h35q55 -214 188.5 -331t323.5 -117q162 0 268.5 90.5t106.5 222.5q0 106 -78 169t-317 130q-295 83 -383 159t-88 204q0 147 116.5 242.5t302.5 95.5q106 0 216.5 -19.5t117.5 -19.5q33 0 52.5 6.5t35.5 21.5l90 -423h-28q-63 159 -177 241t-274 82
q-111 0 -184.5 -48.5t-73.5 -119.5q0 -104 285 -184q46 -13 72 -21q311 -90 415.5 -188.5t104.5 -269.5q0 -209 -164 -345.5t-422 -136.5q-104 0 -224 30t-128 30q-17 0 -36.5 -9t-41.5 -26zM330 1853h74l221 -194l221 194h74l-229 -348h-134z" />
    <glyph glyph-name="scaron" unicode="&#x161;" horiz-adv-x="995" 
d="M70 6l-15 420l21 2q26 -159 135 -251.5t270 -92.5q115 0 185.5 48t70.5 124q0 128 -266 199q-48 13 -73 20q-162 45 -234 113t-72 174q0 133 104.5 213t282.5 80q82 0 178.5 -20.5t110.5 -20.5q11 0 27.5 3.5t50.5 12.5l20 -330l-20 -2q-30 119 -125 183.5t-242 64.5
q-87 0 -134.5 -32.5t-47.5 -92.5q0 -100 252 -166q40 -10 62 -16q193 -53 269 -123.5t76 -189.5q0 -161 -131 -258t-352 -97q-95 0 -198 30t-115 30q-11 0 -34 -6.5t-56 -18.5zM203 1511h74l221 -194l221 194h74l-229 -348h-134z" />
    <glyph glyph-name="Zcaron" unicode="&#x17d;" horiz-adv-x="1247" 
d="M31 0v29l813 1233h-180q-234 0 -355 -74.5t-184 -251.5h-29l97 455q21 -13 42.5 -19t53.5 -6h14h854v-29l-815 -1231h150q252 0 412.5 90.5t269.5 292.5h28l-184 -514q-18 13 -43.5 19t-69.5 6h-874zM330 1853h74l221 -194l221 194h74l-229 -348h-134z" />
    <glyph glyph-name="zcaron" unicode="&#x17e;" horiz-adv-x="991" 
d="M18 0l607 928h-217q-100 0 -177.5 -51.5t-121.5 -147.5h-19l70 324q24 -16 49 -22.5t65 -6.5h656l-608 -909q45 -7 95.5 -11t104.5 -4q153 0 253 60t159 186h18l-121 -375q-35 15 -73.5 22t-93.5 7h-646zM201 1511h74l221 -194l221 194h74l-229 -348h-134z" />
    <glyph glyph-name="brokenbar" unicode="&#xa6;" horiz-adv-x="1024" 
d="M438 408h150v-758h-150v758zM438 1432h150v-758h-150v758z" />
    <glyph glyph-name="Eth" unicode="&#xd0;" horiz-adv-x="1493" 
d="M442 291q0 -142 37 -168.5t176 -26.5q241 0 378.5 141t137.5 386q0 263 -167.5 454t-393.5 191q-94 0 -131 -38.5t-37 -152.5v-319h318v-107h-318v-360zM84 0v29q73 6 100 46t27 181v395h-201v107h201v352q0 141 -27 181t-100 46v29h520q154 0 277.5 -35t224.5 -106
q153 -108 237 -273t84 -356q0 -134 -50.5 -249t-147.5 -200q-90 -78 -201.5 -112.5t-292.5 -34.5h-651z" />
    <glyph glyph-name="eth" unicode="&#xf0;" 
d="M714 984q-30 43 -72.5 88.5t-96.5 90.5l-330 -145l-39 84l287 131q-55 49 -113.5 93.5t-122.5 86.5l90 37q57 -28 124.5 -67t150.5 -93l344 152l39 -84l-287 -131q247 -171 367.5 -355t120.5 -391q0 -218 -158.5 -364t-401.5 -146q-241 0 -400 146.5t-159 363.5
t159.5 363.5t399.5 146.5q12 0 46 -3t52 -4zM606 901q-144 0 -228.5 -106t-84.5 -291q0 -204 90 -321t246 -117q144 0 227.5 106t83.5 295q0 200 -91 317t-243 117z" />
    <glyph glyph-name="Yacute" unicode="&#xdd;" horiz-adv-x="1118" 
d="M657 266q0 -146 27.5 -189t99.5 -48v-29h-487v28q72 6 99.5 49t27.5 189v371l-336 559q-1 2 -3 5q-73 120 -167 136v29h514v-28q-46 -3 -71 -25.5t-25 -61.5q0 -19 12 -50t33 -66l211 -349l227 349q19 27 29 58.5t10 63.5q0 36 -21 55.5t-65 25.5v28h426v-29
q-61 -22 -108 -63.5t-117 -149.5l-316 -479v-379zM383 1505l276 299q27 30 55 46t52 16q31 0 53.5 -23t22.5 -55q0 -28 -18 -49.5t-66 -50.5l-301 -183h-74z" />
    <glyph glyph-name="yacute" unicode="&#xfd;" horiz-adv-x="967" 
d="M-47 1006v18h405v-18q-30 -8 -43.5 -26t-13.5 -50q0 -33 36 -125q6 -15 9 -23l205 -516l199 565q12 34 16 55.5t4 43.5t-16.5 41.5t-48.5 34.5v18h319v-18q-53 -16 -86.5 -55.5t-73.5 -147.5l-342 -934q-62 -171 -145 -247.5t-205 -76.5q-63 0 -114 20t-105 64l135 275
l16 -6q-8 -30 -11 -44t-3 -22q0 -57 32.5 -91t86.5 -34q87 0 139.5 70t52.5 188q0 84 -71 267v1l-224 572q-36 92 -70.5 136t-82.5 65zM307 1163l276 299q27 30 55 46t52 16q31 0 53.5 -23t22.5 -55q0 -28 -18 -49.5t-66 -50.5l-301 -183h-74z" />
    <glyph glyph-name="Thorn" unicode="&#xde;" horiz-adv-x="1157" 
d="M416 444q271 86 383 167t112 188q0 93 -69.5 133.5t-237.5 40.5q-130 0 -159 -12t-29 -66v-451zM184 1100q0 147 -27 189.5t-99 47.5l-1 29h506v-28q-85 -8 -116 -46t-31 -192v-33h411q160 0 240 -58.5t80 -174.5q0 -157 -178.5 -279t-552.5 -221v-68q0 -155 31 -193
t116 -44v-29h-506l1 29q72 5 99 47.5t27 189.5v834z" />
    <glyph glyph-name="thorn" unicode="&#xfe;" horiz-adv-x="1241" 
d="M166 1188q0 108 -22.5 138.5t-81.5 35.5l-1 20l318 64v-422h184q149 0 240 -21t162 -69q107 -72 164 -183t57 -249q0 -265 -157 -383.5t-515 -118.5h-135v-190q0 -118 25.5 -161.5t91.5 -51.5v-19h-435v19q57 0 81 36.5t24 124.5v1430zM379 924v-592q0 -139 40.5 -185.5
t143.5 -46.5q183 0 284 107t101 299q0 204 -119 313t-344 109q-10 0 -48.5 -2t-57.5 -2z" />
    <glyph glyph-name="minus" unicode="&#x2212;" horiz-adv-x="1706" 
d="M254 682h1198v-141h-1198v141z" />
    <glyph glyph-name="multiply" unicode="&#xd7;" horiz-adv-x="1706" 
d="M391 1178l469 -469l469 469l98 -99l-469 -469l469 -469l-98 -96l-469 467l-469 -467l-98 96l469 469l-469 469z" />
    <glyph glyph-name="onesuperior" unicode="&#xb9;" horiz-adv-x="813" 
d="M723 563v-16h-588v16l117 10q65 4 87.5 27t22.5 98v510q0 35 -21 52.5t-65 17.5t-140 -14q-12 -2 -17 -2v20q119 21 215 46t180 56v-712q0 -55 15.5 -72t66.5 -22z" />
    <glyph glyph-name="twosuperior" unicode="&#xb2;" horiz-adv-x="813" 
d="M35 547q299 263 393 384.5t94 217.5q0 73 -46.5 117.5t-123.5 44.5q-99 0 -164 -53.5t-65 -137.5v-16h-12q-9 57 -26.5 131t-18.5 84q68 33 136.5 49t141.5 16q148 0 243 -63t95 -158q0 -90 -82.5 -194t-320.5 -299h231q105 0 155 24t74 84h11l-82 -243q-13 6 -27.5 9
t-34.5 3h-12h-559z" />
    <glyph glyph-name="threesuperior" unicode="&#xb3;" horiz-adv-x="813" 
d="M-6 629l141 194l12 -10q-7 -21 -10.5 -35.5t-3.5 -25.5q0 -64 60 -105t155 -41q109 0 183.5 67.5t74.5 164.5q0 95 -78.5 152t-212.5 57q-21 0 -59.5 -3t-50.5 -4l295 215h-250q-48 0 -81 -18.5t-65 -65.5l-10 5l64 206q8 -8 16.5 -12t20.5 -4h18h459l22 -47l-248 -178
q139 -6 223.5 -83.5t84.5 -195.5q0 -141 -119.5 -236.5t-298.5 -95.5q-86 0 -171 24.5t-171 74.5z" />
    <glyph glyph-name="onequarter" unicode="&#xbc;" horiz-adv-x="1894" 
d="M1458 0v16q45 6 62.5 24.5t17.5 61.5v109h-344q-19 0 -36 -3.5t-31 -10.5q-1 2 -2 6t-1 6q0 49 77 135q41 46 63 74q56 76 87 142.5t31 109.5q0 18 -7 27.5t-27 17.5l184 118q4 -19 6 -35t2 -24q0 -61 -36.5 -131.5t-145.5 -204.5q-14 -18 -42 -51q-55 -65 -73 -98h295
v309q54 20 90.5 55.5t48.5 79.5l15 4q-9 -39 -14 -90.5t-5 -109.5v-248h74q37 0 59 11t43 40h13l-43 -158q-10 16 -22.5 22.5t-39.5 6.5h-84v-109q0 -45 17.5 -62.5t64.5 -23.5v-16h-297zM442 -29l869 1424h141l-868 -1424h-142zM688 616v-16h-559v16l111 9q62 4 84 25
t22 91v476q0 33 -20 49t-62 16q-30 0 -66.5 -3.5t-84.5 -10.5v18q104 18 197 42t179 54v-665q0 -52 15.5 -68t64.5 -20z" />
    <glyph glyph-name="onehalf" unicode="&#xbd;" horiz-adv-x="1894" 
d="M1151 0q286 244 376.5 357.5t90.5 203.5q0 69 -45 110.5t-119 41.5q-95 0 -157 -50t-62 -128v-15h-10q-8 48 -24 114.5t-19 86.5q62 30 126.5 44.5t137.5 14.5q142 0 232.5 -58.5t90.5 -146.5q0 -83 -79 -181t-306 -279h222q99 0 147 23t72 79h10l-80 -229q-11 6 -25 9
t-32 3h-12h-535zM442 -29l869 1424h141l-868 -1424h-142zM688 616v-16h-559v16l111 9q62 4 84 25t22 91v476q0 33 -20 49t-62 16q-30 0 -66.5 -3.5t-84.5 -10.5v18q104 18 197 42t179 54v-665q0 -52 15.5 -68t64.5 -20z" />
    <glyph glyph-name="threequarters" unicode="&#xbe;" horiz-adv-x="1896" 
d="M1458 0v16q45 6 62.5 24.5t17.5 61.5v109h-344q-19 0 -36 -3.5t-31 -10.5q-1 2 -2 6t-1 6q0 49 77 135q41 46 63 74q56 76 87 142.5t31 109.5q0 18 -7 27.5t-27 17.5l184 118q4 -19 6 -35t2 -24q0 -61 -36.5 -131.5t-145.5 -204.5q-14 -18 -42 -51q-55 -65 -73 -98h295
v309q54 20 90.5 55.5t48.5 79.5l15 4q-9 -39 -14 -90.5t-5 -109.5v-248h74q37 0 59 11t43 40h13l-43 -158q-10 16 -22.5 22.5t-39.5 6.5h-84v-109q0 -45 17.5 -62.5t64.5 -23.5v-16h-297zM442 -29l869 1424h141l-868 -1424h-142zM-6 676l135 182l12 -10q-8 -20 -11 -33
t-3 -24q0 -59 57 -97.5t148 -38.5q105 0 176.5 62.5t71.5 152.5t-75.5 142.5t-203.5 52.5q-17 0 -39 -1t-67 -3l280 201h-235q-45 0 -76.5 -17.5t-63.5 -60.5l-12 4l64 192q6 -7 13.5 -10.5t20.5 -3.5h19h436l21 -45l-236 -166q133 -6 214 -78.5t81 -183.5
q0 -131 -114.5 -219t-287.5 -88q-79 0 -159.5 22t-165.5 68z" />
    <glyph glyph-name="franc" unicode="&#x20a3;" horiz-adv-x="1915" 
d="M74 0v28q72 6 99.5 49t27.5 189v834q0 146 -27.5 189t-99.5 49v28h850q46 0 76.5 10t48.5 31l104 -446h-27q-68 150 -201.5 227.5t-326.5 77.5q-100 0 -132 -29t-32 -133v-129h156q117 0 161 27t56 102h27l75 -477h-26q-44 134 -115.5 186.5t-206.5 52.5h-127v-610
q0 -141 27 -181t100 -46v-29h-487zM1299 780q0 94 -27.5 143.5t-79.5 49.5h-8v22l275 29q24 -41 36.5 -85.5t14.5 -94.5q63 100 146.5 154.5t174.5 54.5q23 0 75 -7q10 -1 15 -2l-45 -204q-38 18 -69.5 26t-63.5 8q-117 0 -174 -96t-57 -295v-252q0 -117 25.5 -160.5
t91.5 -52.5v-18h-435v18q57 0 81 37t24 125v600z" />
    <glyph glyph-name="Gbreve" unicode="&#x11e;" horiz-adv-x="1489" 
d="M1468 0h-346q-40 0 -119.5 -5t-119.5 -5q-392 0 -606 201.5t-214 570.5q0 301 172.5 467t485.5 166q75 0 174 -11.5t125 -11.5q24 0 49.5 8.5t56.5 26.5l93 -406h-29q-69 140 -175.5 209.5t-252.5 69.5q-209 0 -336 -139t-127 -369q0 -289 175.5 -485.5t438.5 -196.5
q119 0 162 33.5t43 130.5v397q0 145 -28 189t-101 49v29h479v-29q-71 -5 -99 -48t-28 -190v-385q0 -146 27.5 -189t99.5 -48v-29zM444 1819h65q18 -71 72.5 -102.5t163.5 -31.5t163 31.5t70 102.5h66q-20 -137 -96.5 -208t-202.5 -71q-127 0 -203.5 70.5t-97.5 208.5z" />
    <glyph glyph-name="gbreve" unicode="&#x11f;" horiz-adv-x="1237" 
d="M1174 1024v-18q-57 0 -81 -37t-24 -125v-619q0 -62 11.5 -89.5t46.5 -64.5q6 -6 19 -20q79 -81 79 -168q0 -158 -161.5 -251t-438.5 -93q-183 0 -324.5 53.5t-245.5 161.5l226 230l18 -11q-10 -22 -15 -42.5t-5 -41.5q0 -111 94 -177t256 -66q165 0 263.5 59t98.5 158
q0 56 -27 86t-90 41q-41 8 -168 11.5t-212 18.5q-181 32 -310 184.5t-129 338.5q0 226 148.5 353.5t414.5 127.5h556zM856 705q0 149 -42 193t-148 44q-176 0 -277.5 -108.5t-101.5 -294.5q0 -203 126.5 -323t340.5 -120q19 0 76 3q18 1 26 1v605zM317 1477h65
q18 -71 72.5 -102.5t163.5 -31.5t163 31.5t70 102.5h66q-20 -137 -96.5 -208t-202.5 -71q-127 0 -203.5 70.5t-97.5 208.5z" />
    <glyph glyph-name="Idotaccent" unicode="&#x130;" horiz-adv-x="635" 
d="M561 1366v-29q-73 -6 -100 -46t-27 -181v-854q0 -141 27 -181t100 -46v-29h-487v29q73 6 100 46t27 181v854q0 141 -27 181t-100 46v29h487zM200 1669q0 48 35 83.5t82 35.5q48 0 83.5 -35.5t35.5 -83.5q0 -51 -34 -85t-85 -34q-50 0 -83.5 34t-33.5 85z" />
    <glyph glyph-name="Scedilla" unicode="&#x15e;" horiz-adv-x="1247" 
d="M166 -4l-111 534h35q55 -214 188.5 -331t323.5 -117q162 0 268.5 90.5t106.5 222.5q0 106 -78 169t-317 130q-295 83 -383 159t-88 204q0 147 116.5 242.5t302.5 95.5q106 0 216.5 -19.5t117.5 -19.5q33 0 52.5 6.5t35.5 21.5l90 -423h-28q-63 159 -177 241t-274 82
q-111 0 -184.5 -48.5t-73.5 -119.5q0 -104 285 -184q46 -13 72 -21q311 -90 415.5 -188.5t104.5 -269.5q0 -209 -164 -345.5t-422 -136.5q-104 0 -224 30t-128 30q-17 0 -36.5 -9t-41.5 -26zM381 -379l39 90q59 -37 119.5 -57.5t112.5 -20.5q56 0 83 22t27 69
q0 43 -27.5 64.5t-82.5 21.5q-4 0 -16.5 -1.5t-43.5 -4.5v196h66v-115q16 2 31.5 3t37.5 1q81 0 130 -45.5t49 -119.5q0 -84 -59.5 -131.5t-166.5 -47.5q-58 0 -128.5 18t-170.5 58z" />
    <glyph glyph-name="scedilla" unicode="&#x15f;" horiz-adv-x="995" 
d="M70 6l-15 420l21 2q26 -159 135 -251.5t270 -92.5q115 0 185.5 48t70.5 124q0 128 -266 199q-48 13 -73 20q-162 45 -234 113t-72 174q0 133 104.5 213t282.5 80q82 0 178.5 -20.5t110.5 -20.5q11 0 27.5 3.5t50.5 12.5l20 -330l-20 -2q-30 119 -125 183.5t-242 64.5
q-87 0 -134.5 -32.5t-47.5 -92.5q0 -100 252 -166q40 -10 62 -16q193 -53 269 -123.5t76 -189.5q0 -161 -131 -258t-352 -97q-95 0 -198 30t-115 30q-11 0 -34 -6.5t-56 -18.5zM254 -379l39 90q59 -37 119.5 -57.5t112.5 -20.5q56 0 83 22t27 69q0 43 -27.5 64.5t-82.5 21.5
q-4 0 -16.5 -1.5t-43.5 -4.5v196h66v-115q16 2 31.5 3t37.5 1q81 0 130 -45.5t49 -119.5q0 -84 -59.5 -131.5t-166.5 -47.5q-58 0 -128.5 18t-170.5 58z" />
    <glyph glyph-name="Cacute" unicode="&#x106;" horiz-adv-x="1366" 
d="M1329 418h33l-168 -438q-22 2 -43 3t-49 1q-46 0 -131.5 -7.5t-126.5 -7.5q-362 0 -571.5 210.5t-209.5 572.5q0 305 168.5 474t470.5 169q68 0 167 -11.5t132 -11.5q34 0 60.5 8t54.5 27l92 -406h-28q-64 137 -173 208t-255 71q-205 0 -330 -139.5t-125 -368.5
q0 -287 174 -485.5t428 -198.5q142 0 247.5 81t182.5 249zM610 1505l276 299q27 30 55 46t52 16q31 0 53.5 -23t22.5 -55q0 -28 -18 -49.5t-66 -50.5l-301 -183h-74z" />
    <glyph glyph-name="cacute" unicode="&#x107;" horiz-adv-x="1014" 
d="M985 297l21 -6l-99 -309q-26 3 -41 4.5t-22 1.5q-15 0 -83.5 -8.5t-123.5 -8.5q-261 0 -424.5 162t-163.5 412q0 225 128.5 364.5t338.5 139.5q32 0 107.5 -8.5t119.5 -8.5q23 0 47.5 5t55.5 16l63 -332h-18q-55 105 -130.5 159t-166.5 54q-141 0 -223 -103t-82 -280
q0 -213 98.5 -335t269.5 -122q106 0 189 51.5t139 151.5zM375 1163l276 299q27 30 55 46t52 16q31 0 53.5 -23t22.5 -55q0 -28 -18 -49.5t-66 -50.5l-301 -183h-74z" />
    <glyph glyph-name="Ccaron" unicode="&#x10c;" horiz-adv-x="1366" 
d="M1329 418h33l-168 -438q-22 2 -43 3t-49 1q-46 0 -131.5 -7.5t-126.5 -7.5q-362 0 -571.5 210.5t-209.5 572.5q0 305 168.5 474t470.5 169q68 0 167 -11.5t132 -11.5q34 0 60.5 8t54.5 27l92 -406h-28q-64 137 -173 208t-255 71q-205 0 -330 -139.5t-125 -368.5
q0 -287 174 -485.5t428 -198.5q142 0 247.5 81t182.5 249zM491 1853h74l221 -194l221 194h74l-229 -348h-134z" />
    <glyph glyph-name="ccaron" unicode="&#x10d;" horiz-adv-x="1014" 
d="M985 297l21 -6l-99 -309q-26 3 -41 4.5t-22 1.5q-15 0 -83.5 -8.5t-123.5 -8.5q-261 0 -424.5 162t-163.5 412q0 225 128.5 364.5t338.5 139.5q32 0 107.5 -8.5t119.5 -8.5q23 0 47.5 5t55.5 16l63 -332h-18q-55 105 -130.5 159t-166.5 54q-141 0 -223 -103t-82 -280
q0 -213 98.5 -335t269.5 -122q106 0 189 51.5t139 151.5zM256 1511h74l221 -194l221 194h74l-229 -348h-134z" />
    <glyph glyph-name="dcroat" unicode="&#x111;" horiz-adv-x="1241" 
d="M862 111v608q0 129 -40.5 170t-143.5 41q-187 0 -288 -108t-101 -308q0 -196 116 -302t330 -106q34 1 114 4q9 0 13 1zM1075 193q0 -108 22 -138.5t83 -36.5v-18h-500q-150 0 -242 18.5t-159 59.5q-107 66 -164.5 177t-57.5 251q0 131 52 239t149 179q74 54 173.5 77
t297.5 23h133v125h-311v88h311q0 63 -25 92.5t-79 32.5v20l317 64v-209h158v-88h-158v-956z" />
    <glyph glyph-name="sfthyphen" unicode="&#xad;" horiz-adv-x="797" 
d="M152 614h14l12 -22h383q40 0 80.5 8.5t85.5 26.5l-80 -217h-14l-12 22h-385q-40 0 -80.5 -8.5t-85.5 -26.5z" />
    <glyph glyph-name="periodcentered" unicode="&#x2219;" horiz-adv-x="616" 
d="M307 831q53 0 91 -43t38 -104q0 -62 -37.5 -104.5t-91.5 -42.5q-52 0 -89.5 42.5t-37.5 104.5t38 104.5t89 42.5z" />
    </font>
</defs>
</svg>
